<?xml version="1.0" encoding="UTF-8"?>
<svg version="1.1" xmlns="http://www.w3.org/2000/svg" width="400" height="400">
<path d="M0 0 C0.88490616 -0.0033284 1.76981232 -0.0066568 2.68153381 -0.01008606 C4.56380696 -0.01516342 6.44608915 -0.01749414 8.32836914 -0.01733398 C11.17935611 -0.01949838 14.02994212 -0.03758336 16.88085938 -0.05664062 C18.71223827 -0.05957898 20.54361899 -0.06156081 22.375 -0.0625 C23.21707504 -0.06968552 24.05915009 -0.07687103 24.92674255 -0.08427429 C30.9217248 -0.06169495 36.45109853 0.83085838 42.28515625 2.16796875 C43.80562234 2.49131506 45.32640485 2.81318125 46.84765625 3.1328125 C61.34241247 6.28245266 74.00775934 10.52927029 87.28515625 17.16796875 C87.28515625 17.82796875 87.28515625 18.48796875 87.28515625 19.16796875 C87.8471875 19.28011719 88.40921875 19.39226563 88.98828125 19.5078125 C91.60028733 20.25854214 93.67986947 21.37964251 96.03515625 22.73046875 C97.23398437 23.41302734 97.23398437 23.41302734 98.45703125 24.109375 C99.0603125 24.45871094 99.66359375 24.80804688 100.28515625 25.16796875 C100.28515625 26.15796875 100.28515625 27.14796875 100.28515625 28.16796875 C101.02765625 28.41546875 101.77015625 28.66296875 102.53515625 28.91796875 C105.5348908 30.28148445 107.20592892 31.6266909 109.28515625 34.16796875 C109.28515625 35.15796875 109.28515625 36.14796875 109.28515625 37.16796875 C110.27515625 37.49796875 111.26515625 37.82796875 112.28515625 38.16796875 C112.28515625 38.82796875 112.28515625 39.48796875 112.28515625 40.16796875 C112.94515625 40.16796875 113.60515625 40.16796875 114.28515625 40.16796875 C114.61515625 41.48796875 114.94515625 42.80796875 115.28515625 44.16796875 C115.94515625 44.16796875 116.60515625 44.16796875 117.28515625 44.16796875 C117.61515625 45.48796875 117.94515625 46.80796875 118.28515625 48.16796875 C118.94515625 48.16796875 119.60515625 48.16796875 120.28515625 48.16796875 C121.12542021 49.93552401 121.95714347 51.70714138 122.78515625 53.48046875 C123.24921875 54.46660156 123.71328125 55.45273438 124.19140625 56.46875 C125.28515625 59.16796875 125.28515625 59.16796875 125.28515625 62.16796875 C125.94515625 62.16796875 126.60515625 62.16796875 127.28515625 62.16796875 C127.61515625 64.47796875 127.94515625 66.78796875 128.28515625 69.16796875 C128.94515625 69.16796875 129.60515625 69.16796875 130.28515625 69.16796875 C130.61515625 72.46796875 130.94515625 75.76796875 131.28515625 79.16796875 C131.94515625 79.16796875 132.60515625 79.16796875 133.28515625 79.16796875 C133.41792969 79.80605469 133.55070313 80.44414063 133.6875 81.1015625 C133.95240234 82.34099609 133.95240234 82.34099609 134.22265625 83.60546875 C134.39667969 84.42917969 134.57070313 85.25289063 134.75 86.1015625 C135.09268619 88.14458079 135.09268619 88.14458079 136.28515625 89.16796875 C136.50026613 90.78726814 136.65599059 92.41455879 136.78515625 94.04296875 C136.86765625 95.0278125 136.95015625 96.01265625 137.03515625 97.02734375 C137.20182292 99.12109375 137.36848958 101.21484375 137.53515625 103.30859375 C137.61765625 104.2934375 137.70015625 105.27828125 137.78515625 106.29296875 C137.85734375 107.20304687 137.92953125 108.113125 138.00390625 109.05078125 C138.06448972 111.14991357 138.06448972 111.14991357 139.28515625 112.16796875 C140.35940668 120.10359287 140.43384725 128.11518353 140.41796875 136.109375 C140.41940384 137.74277077 140.41940384 137.74277077 140.42086792 139.40916443 C140.42154313 141.69229185 140.41973527 143.97542127 140.41552734 146.25854492 C140.41016449 149.72514204 140.41549763 153.19160993 140.421875 156.65820312 C140.4212142 158.89192737 140.41993301 161.12565153 140.41796875 163.359375 C140.41999298 164.38051895 140.42201721 165.4016629 140.42410278 166.45375061 C140.36425441 185.08887059 140.36425441 185.08887059 138.28515625 187.16796875 C138.08035771 189.0825619 137.9373025 191.0038232 137.8203125 192.92578125 C137.74232422 194.10914063 137.66433594 195.2925 137.58398438 196.51171875 C137.42790656 199.00896377 137.2742142 201.50635917 137.12304688 204.00390625 C136.72279713 210.01741456 136.23501677 215.45934097 134.28515625 221.16796875 C133.92245037 223.16285109 133.57874926 225.16174985 133.28515625 227.16796875 C132.62515625 227.16796875 131.96515625 227.16796875 131.28515625 227.16796875 C131.31609375 228.74578125 131.31609375 228.74578125 131.34765625 230.35546875 C131.29618823 233.49501779 131.01998438 236.13680271 130.28515625 239.16796875 C129.62515625 239.16796875 128.96515625 239.16796875 128.28515625 239.16796875 C127.95515625 241.80796875 127.62515625 244.44796875 127.28515625 247.16796875 C126.62515625 247.16796875 125.96515625 247.16796875 125.28515625 247.16796875 C125.29417969 247.70421875 125.30320312 248.24046875 125.3125 248.79296875 C124.97337596 257.75763891 121.06906621 265.20496241 117.28515625 273.16796875 C116.62515625 273.16796875 115.96515625 273.16796875 115.28515625 273.16796875 C114.95515625 275.47796875 114.62515625 277.78796875 114.28515625 280.16796875 C113.62515625 280.16796875 112.96515625 280.16796875 112.28515625 280.16796875 C111.95515625 281.81796875 111.62515625 283.46796875 111.28515625 285.16796875 C110.62515625 285.16796875 109.96515625 285.16796875 109.28515625 285.16796875 C108.99640625 285.88984375 108.70765625 286.61171875 108.41015625 287.35546875 C107.36848958 289.95963542 106.32682292 292.56380208 105.28515625 295.16796875 C104.62515625 295.16796875 103.96515625 295.16796875 103.28515625 295.16796875 C102.95515625 296.48796875 102.62515625 297.80796875 102.28515625 299.16796875 C101.62515625 299.16796875 100.96515625 299.16796875 100.28515625 299.16796875 C100.13046875 300.31265625 100.13046875 300.31265625 99.97265625 301.48046875 C99.23804431 304.35213359 98.61354975 305.39838969 96.28515625 307.16796875 C95.62515625 307.16796875 94.96515625 307.16796875 94.28515625 307.16796875 C94.22328125 307.72484375 94.16140625 308.28171875 94.09765625 308.85546875 C92.95736647 312.10090889 90.72219457 313.79185639 88.28515625 316.16796875 C87.95515625 317.15796875 87.62515625 318.14796875 87.28515625 319.16796875 C85.61328125 320.81640625 85.61328125 320.81640625 83.53515625 322.54296875 C81.07252969 324.61930094 78.82957077 326.64474425 76.59765625 328.98046875 C74.20875668 331.24023862 72.30048443 331.99534112 69.28515625 333.16796875 C68.95515625 334.15796875 68.62515625 335.14796875 68.28515625 336.16796875 C65.98263352 337.9271666 63.70949126 339.53250247 61.28515625 341.10546875 C60.26663574 341.77425049 60.26663574 341.77425049 59.22753906 342.45654297 C47.28378266 350.16796875 47.28378266 350.16796875 41.28515625 350.16796875 C41.28515625 350.82796875 41.28515625 351.48796875 41.28515625 352.16796875 C19.33965224 359.35520854 -2.11364804 361.45579421 -23.40014648 351.12304688 C-26.53872947 349.52944064 -29.62795347 347.85971645 -32.71484375 346.16796875 C-33.48699219 345.79542969 -34.25914062 345.42289062 -35.0546875 345.0390625 C-36.71484375 344.16796875 -36.71484375 344.16796875 -38.46484375 342.35546875 C-40.50525284 340.37173769 -42.29783685 339.12264883 -44.71484375 337.66796875 C-47.822414 335.7942019 -50.23034016 333.83650964 -52.71484375 331.16796875 C-53.70484375 330.50796875 -54.69484375 329.84796875 -55.71484375 329.16796875 C-55.71484375 328.50796875 -55.71484375 327.84796875 -55.71484375 327.16796875 C-56.37484375 327.16796875 -57.03484375 327.16796875 -57.71484375 327.16796875 C-59.40625 325.5234375 -59.40625 325.5234375 -61.27734375 323.35546875 C-61.89738281 322.64777344 -62.51742187 321.94007813 -63.15625 321.2109375 C-64.71484375 319.16796875 -64.71484375 319.16796875 -65.71484375 316.16796875 C-66.37484375 316.16796875 -67.03484375 316.16796875 -67.71484375 316.16796875 C-69.32465547 314.26277873 -70.80987643 312.36541213 -72.27734375 310.35546875 C-72.68919922 309.80826172 -73.10105469 309.26105469 -73.52539062 308.69726562 C-75.37633394 306.19803774 -76.72471803 304.1383459 -77.71484375 301.16796875 C-78.37484375 301.16796875 -79.03484375 301.16796875 -79.71484375 301.16796875 C-80.04484375 299.51796875 -80.37484375 297.86796875 -80.71484375 296.16796875 C-81.37484375 296.16796875 -82.03484375 296.16796875 -82.71484375 296.16796875 C-95.71484375 277.27106153 -95.71484375 277.27106153 -95.71484375 269.16796875 C-96.37484375 269.16796875 -97.03484375 269.16796875 -97.71484375 269.16796875 C-99.80186722 263.64825891 -101.81992499 258.10984767 -103.77734375 252.54296875 C-104.03322266 251.81851563 -104.28910156 251.0940625 -104.55273438 250.34765625 C-105.04983712 248.93685565 -105.54425056 247.52510384 -106.03564453 246.11230469 C-106.64467374 244.36884363 -107.27047811 242.63126382 -107.8984375 240.89453125 C-108.71484375 238.16796875 -108.71484375 238.16796875 -108.71484375 234.16796875 C-109.37484375 234.16796875 -110.03484375 234.16796875 -110.71484375 234.16796875 C-111.04484375 229.87796875 -111.37484375 225.58796875 -111.71484375 221.16796875 C-112.37484375 221.16796875 -113.03484375 221.16796875 -113.71484375 221.16796875 C-114.04484375 215.88796875 -114.37484375 210.60796875 -114.71484375 205.16796875 C-115.37484375 205.16796875 -116.03484375 205.16796875 -116.71484375 205.16796875 C-116.79786743 204.0852771 -116.79786743 204.0852771 -116.88256836 202.98071289 C-117.13445915 199.73024707 -117.39330676 196.48037254 -117.65234375 193.23046875 C-117.73935547 192.09416016 -117.82636719 190.95785156 -117.91601562 189.78710938 C-118.00302734 188.70751953 -118.09003906 187.62792969 -118.1796875 186.515625 C-118.25823975 185.51539307 -118.33679199 184.51516113 -118.41772461 183.48461914 C-118.46957169 181.2094376 -118.46957169 181.2094376 -119.71484375 180.16796875 C-119.81338797 178.57733565 -119.84283069 176.98235398 -119.84423828 175.38867188 C-119.84739044 174.37091675 -119.8505426 173.35316162 -119.85379028 172.30456543 C-119.85176605 171.19730103 -119.84974182 170.09003662 -119.84765625 168.94921875 C-119.84861298 167.82100708 -119.8495697 166.69279541 -119.85055542 165.53039551 C-119.85123743 163.13956649 -119.84938172 160.74873564 -119.84521484 158.35791016 C-119.83986691 154.68387724 -119.84515918 151.00996658 -119.8515625 147.3359375 C-119.85090172 145.01953098 -119.84962057 142.70312453 -119.84765625 140.38671875 C-119.8506926 138.72582214 -119.8506926 138.72582214 -119.85379028 137.03137207 C-119.85063812 136.01361694 -119.84748596 134.99586182 -119.84423828 133.94726562 C-119.84344269 133.04649292 -119.84264709 132.14572021 -119.84182739 131.21765137 C-119.71484375 129.16796875 -119.71484375 129.16796875 -118.71484375 128.16796875 C-118.49791391 126.11014819 -118.34320482 124.04570662 -118.21484375 121.98046875 C-118.13234375 120.72492188 -118.04984375 119.469375 -117.96484375 118.17578125 C-117.88098119 116.83987687 -117.79765448 115.50393875 -117.71484375 114.16796875 C-117.55339782 111.56339186 -117.38594765 108.95945623 -117.21484375 106.35546875 C-117.14265625 105.19402344 -117.07046875 104.03257812 -116.99609375 102.8359375 C-116.71484375 100.16796875 -116.71484375 100.16796875 -115.71484375 99.16796875 C-115.31735075 96.82072909 -114.97115652 94.46468327 -114.65234375 92.10546875 C-114.47574219 90.81511719 -114.29914063 89.52476563 -114.1171875 88.1953125 C-113.98441406 87.19628906 -113.85164063 86.19726562 -113.71484375 85.16796875 C-113.05484375 85.16796875 -112.39484375 85.16796875 -111.71484375 85.16796875 C-111.67617187 84.25917969 -111.67617187 84.25917969 -111.63671875 83.33203125 C-111.17970419 76.5806798 -109.57668493 71.26994047 -106.71484375 65.16796875 C-106.43189453 64.56114258 -106.14894531 63.95431641 -105.85742188 63.32910156 C-97.6091374 45.79506647 -97.6091374 45.79506647 -91.71484375 39.16796875 C-91.05484375 39.16796875 -90.39484375 39.16796875 -89.71484375 39.16796875 C-89.38484375 38.17796875 -89.05484375 37.18796875 -88.71484375 36.16796875 C-88.05484375 36.16796875 -87.39484375 36.16796875 -86.71484375 36.16796875 C-86.62460938 35.57886719 -86.534375 34.98976562 -86.44140625 34.3828125 C-85.06307122 30.18111379 -81.07672896 27.84669012 -77.71484375 25.16796875 C-77.08449219 24.66394531 -76.45414063 24.15992187 -75.8046875 23.640625 C-72.52138917 21.1510911 -69.85609874 19.54444648 -65.71484375 19.16796875 C-65.71484375 18.50796875 -65.71484375 17.84796875 -65.71484375 17.16796875 C-62.0683786 15.4546608 -58.3973666 13.80227495 -54.71484375 12.16796875 C-53.59207031 11.66394531 -52.46929687 11.15992188 -51.3125 10.640625 C-38.65997885 5.24166646 -25.31508175 2.08490464 -11.55078125 1.34375 C-7.80302494 0.98492227 -4.20454693 0.00543875 0 0 Z " fill="#F7EFE2" transform="translate(191.71484375,31.83203125)"/>
<path d="M0 0 C0.88490616 -0.0033284 1.76981232 -0.0066568 2.68153381 -0.01008606 C4.56380696 -0.01516342 6.44608915 -0.01749414 8.32836914 -0.01733398 C11.17935611 -0.01949838 14.02994212 -0.03758336 16.88085938 -0.05664062 C18.71223827 -0.05957898 20.54361899 -0.06156081 22.375 -0.0625 C23.21707504 -0.06968552 24.05915009 -0.07687103 24.92674255 -0.08427429 C30.9217248 -0.06169495 36.45109853 0.83085838 42.28515625 2.16796875 C43.80562234 2.49131506 45.32640485 2.81318125 46.84765625 3.1328125 C61.34241247 6.28245266 74.00775934 10.52927029 87.28515625 17.16796875 C87.28515625 17.82796875 87.28515625 18.48796875 87.28515625 19.16796875 C87.8471875 19.28011719 88.40921875 19.39226563 88.98828125 19.5078125 C91.60028733 20.25854214 93.67986947 21.37964251 96.03515625 22.73046875 C97.23398437 23.41302734 97.23398437 23.41302734 98.45703125 24.109375 C99.0603125 24.45871094 99.66359375 24.80804688 100.28515625 25.16796875 C100.28515625 26.15796875 100.28515625 27.14796875 100.28515625 28.16796875 C101.02765625 28.41546875 101.77015625 28.66296875 102.53515625 28.91796875 C105.5348908 30.28148445 107.20592892 31.6266909 109.28515625 34.16796875 C109.28515625 35.15796875 109.28515625 36.14796875 109.28515625 37.16796875 C110.27515625 37.49796875 111.26515625 37.82796875 112.28515625 38.16796875 C112.28515625 38.82796875 112.28515625 39.48796875 112.28515625 40.16796875 C112.94515625 40.16796875 113.60515625 40.16796875 114.28515625 40.16796875 C114.61515625 41.48796875 114.94515625 42.80796875 115.28515625 44.16796875 C115.94515625 44.16796875 116.60515625 44.16796875 117.28515625 44.16796875 C117.61515625 45.48796875 117.94515625 46.80796875 118.28515625 48.16796875 C118.94515625 48.16796875 119.60515625 48.16796875 120.28515625 48.16796875 C121.12542021 49.93552401 121.95714347 51.70714138 122.78515625 53.48046875 C123.24921875 54.46660156 123.71328125 55.45273438 124.19140625 56.46875 C125.28515625 59.16796875 125.28515625 59.16796875 125.28515625 62.16796875 C125.94515625 62.16796875 126.60515625 62.16796875 127.28515625 62.16796875 C127.61515625 64.47796875 127.94515625 66.78796875 128.28515625 69.16796875 C128.94515625 69.16796875 129.60515625 69.16796875 130.28515625 69.16796875 C130.61515625 72.46796875 130.94515625 75.76796875 131.28515625 79.16796875 C131.94515625 79.16796875 132.60515625 79.16796875 133.28515625 79.16796875 C133.41792969 79.80605469 133.55070313 80.44414063 133.6875 81.1015625 C133.95240234 82.34099609 133.95240234 82.34099609 134.22265625 83.60546875 C134.39667969 84.42917969 134.57070313 85.25289063 134.75 86.1015625 C135.09268619 88.14458079 135.09268619 88.14458079 136.28515625 89.16796875 C136.50026613 90.78726814 136.65599059 92.41455879 136.78515625 94.04296875 C136.86765625 95.0278125 136.95015625 96.01265625 137.03515625 97.02734375 C137.20182292 99.12109375 137.36848958 101.21484375 137.53515625 103.30859375 C137.61765625 104.2934375 137.70015625 105.27828125 137.78515625 106.29296875 C137.85734375 107.20304687 137.92953125 108.113125 138.00390625 109.05078125 C138.06448972 111.14991357 138.06448972 111.14991357 139.28515625 112.16796875 C140.35940668 120.10359287 140.43384725 128.11518353 140.41796875 136.109375 C140.41940384 137.74277077 140.41940384 137.74277077 140.42086792 139.40916443 C140.42154313 141.69229185 140.41973527 143.97542127 140.41552734 146.25854492 C140.41016449 149.72514204 140.41549763 153.19160993 140.421875 156.65820312 C140.4212142 158.89192737 140.41993301 161.12565153 140.41796875 163.359375 C140.41999298 164.38051895 140.42201721 165.4016629 140.42410278 166.45375061 C140.36425441 185.08887059 140.36425441 185.08887059 138.28515625 187.16796875 C138.08035771 189.0825619 137.9373025 191.0038232 137.8203125 192.92578125 C137.74232422 194.10914063 137.66433594 195.2925 137.58398438 196.51171875 C137.42790656 199.00896377 137.2742142 201.50635917 137.12304688 204.00390625 C136.72279713 210.01741456 136.23501677 215.45934097 134.28515625 221.16796875 C133.92245037 223.16285109 133.57874926 225.16174985 133.28515625 227.16796875 C132.62515625 227.16796875 131.96515625 227.16796875 131.28515625 227.16796875 C131.31609375 228.74578125 131.31609375 228.74578125 131.34765625 230.35546875 C131.29618823 233.49501779 131.01998438 236.13680271 130.28515625 239.16796875 C129.62515625 239.16796875 128.96515625 239.16796875 128.28515625 239.16796875 C127.95515625 241.80796875 127.62515625 244.44796875 127.28515625 247.16796875 C126.62515625 247.16796875 125.96515625 247.16796875 125.28515625 247.16796875 C125.29417969 247.70421875 125.30320312 248.24046875 125.3125 248.79296875 C124.97337596 257.75763891 121.06906621 265.20496241 117.28515625 273.16796875 C116.62515625 273.16796875 115.96515625 273.16796875 115.28515625 273.16796875 C114.95515625 275.47796875 114.62515625 277.78796875 114.28515625 280.16796875 C113.62515625 280.16796875 112.96515625 280.16796875 112.28515625 280.16796875 C111.95515625 281.81796875 111.62515625 283.46796875 111.28515625 285.16796875 C110.62515625 285.16796875 109.96515625 285.16796875 109.28515625 285.16796875 C108.99640625 285.88984375 108.70765625 286.61171875 108.41015625 287.35546875 C107.36848958 289.95963542 106.32682292 292.56380208 105.28515625 295.16796875 C104.62515625 295.16796875 103.96515625 295.16796875 103.28515625 295.16796875 C102.95515625 296.48796875 102.62515625 297.80796875 102.28515625 299.16796875 C101.62515625 299.16796875 100.96515625 299.16796875 100.28515625 299.16796875 C100.13046875 300.31265625 100.13046875 300.31265625 99.97265625 301.48046875 C99.23804431 304.35213359 98.61354975 305.39838969 96.28515625 307.16796875 C95.62515625 307.16796875 94.96515625 307.16796875 94.28515625 307.16796875 C94.22328125 307.72484375 94.16140625 308.28171875 94.09765625 308.85546875 C92.95736647 312.10090889 90.72219457 313.79185639 88.28515625 316.16796875 C87.95515625 317.15796875 87.62515625 318.14796875 87.28515625 319.16796875 C85.61328125 320.81640625 85.61328125 320.81640625 83.53515625 322.54296875 C81.07252969 324.61930094 78.82957077 326.64474425 76.59765625 328.98046875 C74.20875668 331.24023862 72.30048443 331.99534112 69.28515625 333.16796875 C68.95515625 334.15796875 68.62515625 335.14796875 68.28515625 336.16796875 C65.98263352 337.9271666 63.70949126 339.53250247 61.28515625 341.10546875 C60.26663574 341.77425049 60.26663574 341.77425049 59.22753906 342.45654297 C47.28378266 350.16796875 47.28378266 350.16796875 41.28515625 350.16796875 C41.28515625 350.82796875 41.28515625 351.48796875 41.28515625 352.16796875 C19.33965224 359.35520854 -2.11364804 361.45579421 -23.40014648 351.12304688 C-26.53872947 349.52944064 -29.62795347 347.85971645 -32.71484375 346.16796875 C-33.48699219 345.79542969 -34.25914062 345.42289062 -35.0546875 345.0390625 C-36.71484375 344.16796875 -36.71484375 344.16796875 -38.46484375 342.35546875 C-40.50525284 340.37173769 -42.29783685 339.12264883 -44.71484375 337.66796875 C-47.822414 335.7942019 -50.23034016 333.83650964 -52.71484375 331.16796875 C-53.70484375 330.50796875 -54.69484375 329.84796875 -55.71484375 329.16796875 C-55.71484375 328.50796875 -55.71484375 327.84796875 -55.71484375 327.16796875 C-56.37484375 327.16796875 -57.03484375 327.16796875 -57.71484375 327.16796875 C-59.40625 325.5234375 -59.40625 325.5234375 -61.27734375 323.35546875 C-61.89738281 322.64777344 -62.51742187 321.94007813 -63.15625 321.2109375 C-64.71484375 319.16796875 -64.71484375 319.16796875 -65.71484375 316.16796875 C-66.37484375 316.16796875 -67.03484375 316.16796875 -67.71484375 316.16796875 C-69.32465547 314.26277873 -70.80987643 312.36541213 -72.27734375 310.35546875 C-72.68919922 309.80826172 -73.10105469 309.26105469 -73.52539062 308.69726562 C-75.37633394 306.19803774 -76.72471803 304.1383459 -77.71484375 301.16796875 C-78.37484375 301.16796875 -79.03484375 301.16796875 -79.71484375 301.16796875 C-80.04484375 299.51796875 -80.37484375 297.86796875 -80.71484375 296.16796875 C-81.37484375 296.16796875 -82.03484375 296.16796875 -82.71484375 296.16796875 C-95.71484375 277.27106153 -95.71484375 277.27106153 -95.71484375 269.16796875 C-96.37484375 269.16796875 -97.03484375 269.16796875 -97.71484375 269.16796875 C-99.80186722 263.64825891 -101.81992499 258.10984767 -103.77734375 252.54296875 C-104.03322266 251.81851563 -104.28910156 251.0940625 -104.55273438 250.34765625 C-105.04983712 248.93685565 -105.54425056 247.52510384 -106.03564453 246.11230469 C-106.64467374 244.36884363 -107.27047811 242.63126382 -107.8984375 240.89453125 C-108.71484375 238.16796875 -108.71484375 238.16796875 -108.71484375 234.16796875 C-109.37484375 234.16796875 -110.03484375 234.16796875 -110.71484375 234.16796875 C-111.04484375 229.87796875 -111.37484375 225.58796875 -111.71484375 221.16796875 C-112.37484375 221.16796875 -113.03484375 221.16796875 -113.71484375 221.16796875 C-114.04484375 215.88796875 -114.37484375 210.60796875 -114.71484375 205.16796875 C-115.37484375 205.16796875 -116.03484375 205.16796875 -116.71484375 205.16796875 C-116.79786743 204.0852771 -116.79786743 204.0852771 -116.88256836 202.98071289 C-117.13445915 199.73024707 -117.39330676 196.48037254 -117.65234375 193.23046875 C-117.73935547 192.09416016 -117.82636719 190.95785156 -117.91601562 189.78710938 C-118.00302734 188.70751953 -118.09003906 187.62792969 -118.1796875 186.515625 C-118.25823975 185.51539307 -118.33679199 184.51516113 -118.41772461 183.48461914 C-118.46957169 181.2094376 -118.46957169 181.2094376 -119.71484375 180.16796875 C-119.81338797 178.57733565 -119.84283069 176.98235398 -119.84423828 175.38867188 C-119.84739044 174.37091675 -119.8505426 173.35316162 -119.85379028 172.30456543 C-119.85176605 171.19730103 -119.84974182 170.09003662 -119.84765625 168.94921875 C-119.84861298 167.82100708 -119.8495697 166.69279541 -119.85055542 165.53039551 C-119.85123743 163.13956649 -119.84938172 160.74873564 -119.84521484 158.35791016 C-119.83986691 154.68387724 -119.84515918 151.00996658 -119.8515625 147.3359375 C-119.85090172 145.01953098 -119.84962057 142.70312453 -119.84765625 140.38671875 C-119.8506926 138.72582214 -119.8506926 138.72582214 -119.85379028 137.03137207 C-119.85063812 136.01361694 -119.84748596 134.99586182 -119.84423828 133.94726562 C-119.84344269 133.04649292 -119.84264709 132.14572021 -119.84182739 131.21765137 C-119.71484375 129.16796875 -119.71484375 129.16796875 -118.71484375 128.16796875 C-118.49791391 126.11014819 -118.34320482 124.04570662 -118.21484375 121.98046875 C-118.13234375 120.72492188 -118.04984375 119.469375 -117.96484375 118.17578125 C-117.88098119 116.83987687 -117.79765448 115.50393875 -117.71484375 114.16796875 C-117.55339782 111.56339186 -117.38594765 108.95945623 -117.21484375 106.35546875 C-117.14265625 105.19402344 -117.07046875 104.03257812 -116.99609375 102.8359375 C-116.71484375 100.16796875 -116.71484375 100.16796875 -115.71484375 99.16796875 C-115.31735075 96.82072909 -114.97115652 94.46468327 -114.65234375 92.10546875 C-114.47574219 90.81511719 -114.29914063 89.52476563 -114.1171875 88.1953125 C-113.98441406 87.19628906 -113.85164063 86.19726562 -113.71484375 85.16796875 C-113.05484375 85.16796875 -112.39484375 85.16796875 -111.71484375 85.16796875 C-111.67617187 84.25917969 -111.67617187 84.25917969 -111.63671875 83.33203125 C-111.17970419 76.5806798 -109.57668493 71.26994047 -106.71484375 65.16796875 C-106.43189453 64.56114258 -106.14894531 63.95431641 -105.85742188 63.32910156 C-97.6091374 45.79506647 -97.6091374 45.79506647 -91.71484375 39.16796875 C-91.05484375 39.16796875 -90.39484375 39.16796875 -89.71484375 39.16796875 C-89.38484375 38.17796875 -89.05484375 37.18796875 -88.71484375 36.16796875 C-88.05484375 36.16796875 -87.39484375 36.16796875 -86.71484375 36.16796875 C-86.62460938 35.57886719 -86.534375 34.98976562 -86.44140625 34.3828125 C-85.06307122 30.18111379 -81.07672896 27.84669012 -77.71484375 25.16796875 C-77.08449219 24.66394531 -76.45414063 24.15992187 -75.8046875 23.640625 C-72.52138917 21.1510911 -69.85609874 19.54444648 -65.71484375 19.16796875 C-65.71484375 18.50796875 -65.71484375 17.84796875 -65.71484375 17.16796875 C-62.0683786 15.4546608 -58.3973666 13.80227495 -54.71484375 12.16796875 C-53.59207031 11.66394531 -52.46929687 11.15992188 -51.3125 10.640625 C-38.65997885 5.24166646 -25.31508175 2.08490464 -11.55078125 1.34375 C-7.80302494 0.98492227 -4.20454693 0.00543875 0 0 Z M-77.71484375 34.16796875 C-78.56433594 34.9259375 -79.41382813 35.68390625 -80.2890625 36.46484375 C-90.4816738 46.01749017 -96.78824826 57.2041901 -101.71484375 70.16796875 C-102.47474609 71.82699219 -102.47474609 71.82699219 -103.25 73.51953125 C-104.80913384 77.40281393 -105.60820366 80.99956179 -106.27734375 85.10546875 C-106.50528167 86.4483487 -106.73575287 87.7908011 -106.96875 89.1328125 C-107.08508789 89.80296387 -107.20142578 90.47311523 -107.32128906 91.16357422 C-107.70597287 93.12278888 -108.21905964 95.0553976 -108.734375 96.984375 C-113.22357697 114.59389292 -111.92260052 134.44225887 -111.96484375 152.48046875 C-111.97002014 153.48746826 -111.97519653 154.49446777 -111.98052979 155.53198242 C-112.06795653 177.13473492 -110.34918057 198.04974545 -105.71484375 219.16796875 C-105.47894531 220.24618896 -105.47894531 220.24618896 -105.23828125 221.34619141 C-103.46991895 229.24949709 -101.23286016 236.97385386 -98.71484375 244.66796875 C-98.47781738 245.39781982 -98.24079102 246.1276709 -97.99658203 246.87963867 C-96.53859123 251.20164602 -94.7802474 255.20929059 -92.67944336 259.25634766 C-91.80023001 260.99875225 -91.03392803 262.79697148 -90.28125 264.59765625 C-88.34857328 269.00280966 -86.0314108 273.11661523 -83.65234375 277.29296875 C-78.30749939 286.68693762 -78.30749939 286.68693762 -76.71484375 291.16796875 C-76.05484375 291.16796875 -75.39484375 291.16796875 -74.71484375 291.16796875 C-74.43769531 291.74289062 -74.16054687 292.3178125 -73.875 292.91015625 C-70.22293445 300.01754307 -65.33168186 305.94389997 -59.9140625 311.7734375 C-58.04482602 313.80868077 -56.32154778 315.89280667 -54.58984375 318.04296875 C-42.1876405 332.18833882 -21.65831725 346.45400407 -2.71484375 349.16796875 C25.67301628 350.86759829 48.03290326 340.6570333 69.28515625 322.16796875 C80.88343085 311.55332589 91.23501148 300.33604815 98.28515625 286.16796875 C98.90390625 285.01296875 99.52265625 283.85796875 100.16015625 282.66796875 C101.49033859 280.16891867 101.49033859 280.16891867 101.28515625 277.16796875 C102.27515625 276.83796875 103.26515625 276.50796875 104.28515625 276.16796875 C109.55458184 267.93070577 112.93327776 258.13232261 116.52734375 249.06738281 C117.14930564 247.50847061 117.7924425 245.95802249 118.44140625 244.41015625 C130.10601607 215.15456227 131.67617855 180.18048559 131.54589844 149.07861328 C131.53513365 146.03658251 131.54590446 142.9951387 131.55859375 139.953125 C131.58476979 102.79343397 126.93907212 65.12325122 100.28515625 37.16796875 C99.76824219 36.5646875 99.25132812 35.96140625 98.71875 35.33984375 C88.78845987 24.24280935 72.95692032 16.88817554 58.84765625 13.04296875 C57.95755859 12.79160156 57.06746094 12.54023437 56.15039062 12.28125 C12.96455669 0.2308566 -43.10682527 2.12148864 -77.71484375 34.16796875 Z " fill="#1C1E21" transform="translate(191.71484375,31.83203125)"/>
<path d="M0 0 C0.66 0.66 1.32 1.32 2 2 C2.46277344 2.45503906 2.92554687 2.91007813 3.40234375 3.37890625 C4.53012978 4.52323682 5.62383869 5.70163843 6.69140625 6.90234375 C15.52302909 16.50834688 26.69311511 19.85038647 39.125 22.625 C53.96433799 26.01137207 68.3291625 29.66221112 77.1875 43.25 C79.96095039 48.86673586 79.4246262 54.89481888 79 61 C76.01294639 59.60380415 73.47355108 57.93883503 70.8125 56 C64.98673684 52.12868642 59.83169227 51.24949919 52.95703125 50.62109375 C36.28832001 49.07531469 22.64151488 45.86714674 11 32.8125 C9.13688622 30.19249625 8.01012801 28.03038403 7 25 C6.443125 23.700625 6.443125 23.700625 5.875 22.375 C5 20 5 20 5 17 C4.34 17 3.68 17 3 17 C1.25314692 13.17254549 0.65113667 9.87557277 0.375 5.6875 C0.26285156 4.08455078 0.26285156 4.08455078 0.1484375 2.44921875 C0.09945312 1.64097656 0.05046875 0.83273438 0 0 Z " fill="#E1A834" transform="translate(93,152)"/>
<path d="M0 0 C0.33 0 0.66 0 1 0 C1.18194291 4.63954425 0.85437682 7.77614168 -1 12 C-1.20625 13.155 -1.4125 14.31 -1.625 15.5 C-4.13337192 26.03516205 -12.06622324 35.42073093 -20.6875 41.5625 C-21.45449219 42.12066406 -22.22148437 42.67882812 -23.01171875 43.25390625 C-31.00744977 47.92592163 -38.30990699 49.60360721 -47.5 50.0625 C-57.74843091 50.61517836 -67.03053239 51.2897808 -74.625 58.79296875 C-76 60 -76 60 -78 60 C-78.49041845 51.13614054 -77.57699881 44.86027929 -71.875 37.875 C-63.65815777 29.12526632 -54.92009261 26.19719913 -43.34375 24.1796875 C-26.55834603 21.19916201 -12.81938429 16.06318524 -1.7890625 2.2265625 C-1.19867188 1.49179688 -0.60828125 0.75703125 0 0 Z " fill="#E9AE2F" transform="translate(309,152)"/>
<path d="M0 0 C3.85025879 0.60355408 6.86101159 1.76772603 10.3125 3.5625 C11.19550781 4.01753906 12.07851563 4.47257812 12.98828125 4.94140625 C13.65214844 5.29074219 14.31601562 5.64007813 15 6 C15 6.66 15 7.32 15 8 C15.56203125 8.11214844 16.1240625 8.22429688 16.703125 8.33984375 C19.31513108 9.09057339 21.39471322 10.21167376 23.75 11.5625 C24.94882812 12.24505859 24.94882812 12.24505859 26.171875 12.94140625 C26.77515625 13.29074219 27.3784375 13.64007813 28 14 C28 14.99 28 15.98 28 17 C28.7425 17.2475 29.485 17.495 30.25 17.75 C33.24973455 19.1135157 34.92077267 20.45872215 37 23 C37 23.99 37 24.98 37 26 C37.99 26.33 38.98 26.66 40 27 C40 27.66 40 28.32 40 29 C40.66 29 41.32 29 42 29 C42.33 30.32 42.66 31.64 43 33 C43.66 33 44.32 33 45 33 C45.33 34.32 45.66 35.64 46 37 C46.66 37 47.32 37 48 37 C48.84026396 38.76755526 49.67198722 40.53917263 50.5 42.3125 C50.9640625 43.29863281 51.428125 44.28476563 51.90625 45.30078125 C53 48 53 48 53 51 C53.66 51 54.32 51 55 51 C55.33 53.31 55.66 55.62 56 58 C56.66 58 57.32 58 58 58 C58.33 61.3 58.66 64.6 59 68 C59.66 68 60.32 68 61 68 C61.13277344 68.63808594 61.26554688 69.27617188 61.40234375 69.93359375 C61.66724609 71.17302734 61.66724609 71.17302734 61.9375 72.4375 C62.11152344 73.26121094 62.28554688 74.08492188 62.46484375 74.93359375 C62.80752994 76.97661204 62.80752994 76.97661204 64 78 C64.21510988 79.61929939 64.37083434 81.24659004 64.5 82.875 C64.5825 83.85984375 64.665 84.8446875 64.75 85.859375 C64.91666667 87.953125 65.08333333 90.046875 65.25 92.140625 C65.3325 93.12546875 65.415 94.1103125 65.5 95.125 C65.5721875 96.03507812 65.644375 96.94515625 65.71875 97.8828125 C65.77933347 99.98194482 65.77933347 99.98194482 67 101 C68.07425043 108.93562412 68.148691 116.94721478 68.1328125 124.94140625 C68.13376923 126.03033676 68.13472595 127.11926727 68.13571167 128.24119568 C68.13638688 130.5243231 68.13457902 132.80745252 68.13037109 135.09057617 C68.12500824 138.55717329 68.13034138 142.02364118 68.13671875 145.49023438 C68.13605795 147.72395862 68.13477676 149.95768278 68.1328125 152.19140625 C68.13483673 153.2125502 68.13686096 154.23369415 68.13894653 155.28578186 C68.07909816 173.92090184 68.07909816 173.92090184 66 176 C65.79520146 177.91459315 65.65214625 179.83585445 65.53515625 181.7578125 C65.45716797 182.94117188 65.37917969 184.12453125 65.29882812 185.34375 C65.14275031 187.84099502 64.98905795 190.33839042 64.83789062 192.8359375 C64.43764088 198.84944581 63.94986052 204.29137222 62 210 C61.63729412 211.99488234 61.29359301 213.9937811 61 216 C60.34 216 59.68 216 59 216 C59.0309375 217.5778125 59.0309375 217.5778125 59.0625 219.1875 C59.01103198 222.32704904 58.73482813 224.96883396 58 228 C57.34 228 56.68 228 56 228 C55.67 230.64 55.34 233.28 55 236 C54.34 236 53.68 236 53 236 C53.00902344 236.53625 53.01804687 237.0725 53.02734375 237.625 C52.68821971 246.58967016 48.78390996 254.03699366 45 262 C44.34 262 43.68 262 43 262 C42.67 264.31 42.34 266.62 42 269 C41.34 269 40.68 269 40 269 C39.67 270.65 39.34 272.3 39 274 C38.34 274 37.68 274 37 274 C36.71125 274.721875 36.4225 275.44375 36.125 276.1875 C35.08333333 278.79166667 34.04166667 281.39583333 33 284 C32.34 284 31.68 284 31 284 C30.67 285.32 30.34 286.64 30 288 C29.34 288 28.68 288 28 288 C27.8453125 289.1446875 27.8453125 289.1446875 27.6875 290.3125 C26.95288806 293.18416484 26.3283935 294.23042094 24 296 C23.34 296 22.68 296 22 296 C21.938125 296.556875 21.87625 297.11375 21.8125 297.6875 C20.67221022 300.93294014 18.43703832 302.62388764 16 305 C15.67 305.99 15.34 306.98 15 308 C13.328125 309.6484375 13.328125 309.6484375 11.25 311.375 C8.78737344 313.45133219 6.54441452 315.4767755 4.3125 317.8125 C1.92360043 320.07226987 0.01532818 320.82737237 -3 322 C-3.33 322.99 -3.66 323.98 -4 325 C-6.30252273 326.75919785 -8.57566499 328.36453372 -11 329.9375 C-12.01852051 330.60628174 -12.01852051 330.60628174 -13.05761719 331.28857422 C-25.00137359 339 -25.00137359 339 -31 339 C-31 339.66 -31 340.32 -31 341 C-52.94550401 348.18723979 -74.39880429 350.28782546 -95.68530273 339.95507812 C-98.82388572 338.36147189 -101.91310972 336.6917477 -105 335 C-105.77214844 334.62746094 -106.54429687 334.25492187 -107.33984375 333.87109375 C-109 333 -109 333 -110.75 331.1875 C-112.79040909 329.20376894 -114.5829931 327.95468008 -117 326.5 C-120.10757025 324.62623315 -122.51549641 322.66854089 -125 320 C-125.99 319.34 -126.98 318.68 -128 318 C-128 317.34 -128 316.68 -128 316 C-128.66 316 -129.32 316 -130 316 C-131.69140625 314.35546875 -131.69140625 314.35546875 -133.5625 312.1875 C-134.49255859 311.12595703 -134.49255859 311.12595703 -135.44140625 310.04296875 C-137 308 -137 308 -138 305 C-138.66 305 -139.32 305 -140 305 C-141.60981172 303.09480998 -143.09503268 301.19744338 -144.5625 299.1875 C-144.97435547 298.64029297 -145.38621094 298.09308594 -145.81054688 297.52929688 C-147.66149019 295.03006899 -149.00987428 292.97037715 -150 290 C-150.66 290 -151.32 290 -152 290 C-152 288.68 -152 287.36 -152 286 C-151.34 286 -150.68 286 -150 286 C-148.58984375 287.80078125 -148.58984375 287.80078125 -146.9375 290.3125 C-140.00420551 300.55401507 -140.00420551 300.55401507 -131.26171875 309.1875 C-128.70466501 311.23667605 -128.70641498 311.97250723 -128 315 C-126.20067421 316.06716704 -126.20067421 316.06716704 -124 317 C-121.56702359 318.8247323 -119.34056379 320.63729192 -117.2578125 322.85546875 C-114.53013444 325.44629099 -111.54239241 327.43774075 -108.375 329.4375 C-107.75109375 329.83219482 -107.1271875 330.22688965 -106.484375 330.63354492 C-95.08102029 337.7621081 -82.65957346 343.3824786 -69 344 C-67.98808594 344.06316406 -66.97617188 344.12632812 -65.93359375 344.19140625 C-41.01001333 345.0546811 -18.44891124 331.56212117 0 316 C0.63421875 315.48824219 1.2684375 314.97648437 1.921875 314.44921875 C6.47156731 310.71484741 10.23860419 306.51531392 14 302 C14.58136719 301.34128906 15.16273438 300.68257813 15.76171875 300.00390625 C25.88178119 288.10169445 33.87211009 273.86251693 41 260 C41.37382812 259.31421875 41.74765625 258.6284375 42.1328125 257.921875 C44.43433574 253.59160165 45.89298378 249.29101961 47.21484375 244.57421875 C48.01638602 241.94627667 48.99863264 239.46958284 50.0625 236.9375 C51.6665868 233.04880472 52.69276394 229.30564008 53.5078125 225.1875 C53.99652465 223.01544599 54.67024707 221.02569353 55.4375 218.9375 C64.38861607 192.9851913 64.38564162 162.65630729 64.375 135.5625 C64.37672211 134.44082428 64.37844421 133.31914856 64.38021851 132.16348267 C64.67842787 98.30556297 64.67842787 98.30556297 55.76953125 66.015625 C55 64 55 64 55 60 C54.34 60 53.68 60 53 60 C52.814375 58.80375 52.62875 57.6075 52.4375 56.375 C49.38738971 42.83080398 40.89940813 31.40443772 31 22 C30.48695313 21.41992188 29.97390625 20.83984375 29.4453125 20.2421875 C21.48880583 11.53442269 10.5793431 5.96581411 0 1 C0 0.67 0 0.34 0 0 Z " fill="#C9C8C6" transform="translate(264,43)"/>
<path d="M0 0 C2.2622042 3.39330629 3.82426039 6.90997668 5.48828125 10.625 C7.79605511 14.25064989 10.71911124 15.63684766 14.80810547 16.79614258 C15.81760254 16.99361084 16.82709961 17.1910791 17.8671875 17.39453125 C18.99318359 17.62446777 20.11917969 17.8544043 21.27929688 18.09130859 C22.46587891 18.32930176 23.65246094 18.56729492 24.875 18.8125 C44.79629087 23.05304003 63.44677117 29.58352742 75.125 47.5 C82.31733405 60.33792959 83.74356495 71.57484002 83 86 C82.34 86 81.68 86 81 86 C80.82984375 85.2265625 80.6596875 84.453125 80.484375 83.65625 C79.16696832 77.99420429 77.76043487 72.88649919 74.953125 67.78515625 C74 66 74 66 72.75 62.625 C69.02174596 53.84556307 61.72107806 47.26378354 54 42 C53.24074219 41.46503906 52.48148438 40.93007812 51.69921875 40.37890625 C41.43186313 33.64042899 29.73070234 31.65544709 17.74829102 30.21411133 C10.71568065 29.27399454 4.07243746 27.17531616 -0.4375 21.375 C-0.91058594 20.78460938 -1.38367188 20.19421875 -1.87109375 19.5859375 C-4.473544 15.92990012 -4.58385249 12.35235491 -4 8 C-2.90583902 5.18098264 -1.5462608 2.59550921 0 0 Z " fill="#BE8A2B" transform="translate(106,98)"/>
<path d="M0 0 C3 1 3 1 4.6875 3.5 C6.31907163 7.85085768 6.73359468 11.40885126 6 16 C3.70044237 20.68755978 0.69994491 23.76517734 -4 26 C-7.97500644 27.09820109 -12.00185156 27.79467422 -16.0625 28.5 C-36.99938564 32.41615443 -54.86979195 37.95909413 -68 56 C-72.75562662 63.5112433 -76.75180149 71.1065856 -78 80 C-78.66 79.67 -79.32 79.34 -80 79 C-80.36741339 70.44062871 -79.73977333 63.13777913 -77 55 C-76.34 55 -75.68 55 -75 55 C-74.95875 54.195625 -74.9175 53.39125 -74.875 52.5625 C-72.33840635 42.23494015 -63.13945392 33.42855093 -54.4375 27.8125 C-44.48350586 22.27395612 -33.99961391 18.90862355 -22.8190918 17.04223633 C-10.67708481 15.4627615 -10.67708481 15.4627615 -1 9 C-0.42676193 6.72838745 -0.42676193 6.72838745 -0.3125 4.3125 C-0.24675781 3.50425781 -0.18101562 2.69601563 -0.11328125 1.86328125 C-0.07589844 1.24839844 -0.03851563 0.63351563 0 0 Z " fill="#C58E2B" transform="translate(296,99)"/>
<path d="M0 0 C0.66 0 1.32 0 2 0 C1.67 0.99 1.34 1.98 1 3 C0.87974705 5.35192393 0.82467665 7.70753531 0.8125 10.0625 C0.79832031 11.31160156 0.78414062 12.56070313 0.76953125 13.84765625 C0.66187395 17.09765087 0.66187395 17.09765087 3 19 C5.56041853 19.20506785 8.06149314 19.31983044 10.625 19.375 C16.29753194 19.5897785 20.16732905 20.17539743 25.08984375 23.12890625 C29.80775969 25.28043029 35.57718353 24.89303814 40.36328125 23.12890625 C41.13027344 22.77699219 41.89726562 22.42507813 42.6875 22.0625 C49.44346374 18.96373543 56.68960825 19.1813993 64 19 C65.01173798 15.96478606 65.16573514 13.80266921 65.1875 10.625 C65.20167969 9.68914062 65.21585937 8.75328125 65.23046875 7.7890625 C64.98668108 4.83881846 64.23112508 2.67635888 63 0 C66.07836613 0.95535501 67.00121326 2.00190656 68.75 4.75 C70.91327928 10.39125868 70.94097903 17.10221016 70 23 C65.8255265 27.1655727 59.88839869 28.78218718 54.3125 30.25 C50.0153218 31.46001213 46.65327 33.31953003 42.875 35.6875 C35.27117788 40.19955201 35.27117788 40.19955201 31.16015625 39.828125 C27.4631134 38.41081382 24.48592211 35.88514995 21.35766602 33.49536133 C16.36731591 29.85410286 11.50225254 28.41675659 5.46875 27.31738281 C1.0015284 26.46852064 -1.85848862 25.34418954 -5 22 C-6.57263986 15.53348084 -4.87663887 7.12773145 -1.5 1.5 C-1.005 1.005 -0.51 0.51 0 0 Z " fill="#CFBE90" transform="translate(169,239)"/>
<path d="M0 0 C0.33 0 0.66 0 1 0 C1.49483374 4.94833742 0.31322658 7.86723032 -1.9765625 12.09765625 C-3.17817904 14.33119539 -4.11012002 16.62698672 -5 19 C-5.66 19 -6.32 19 -7 19 C-7.33 21.31 -7.66 23.62 -8 26 C-8.66 26 -9.32 26 -10 26 C-10.33 27.65 -10.66 29.3 -11 31 C-11.66 31 -12.32 31 -13 31 C-13.28875 31.721875 -13.5775 32.44375 -13.875 33.1875 C-14.91666667 35.79166667 -15.95833333 38.39583333 -17 41 C-17.66 41 -18.32 41 -19 41 C-19.33 42.32 -19.66 43.64 -20 45 C-20.66 45 -21.32 45 -22 45 C-22.1546875 46.1446875 -22.1546875 46.1446875 -22.3125 47.3125 C-23.04711194 50.18416484 -23.6716065 51.23042094 -26 53 C-26.66 53 -27.32 53 -28 53 C-28.061875 53.556875 -28.12375 54.11375 -28.1875 54.6875 C-29.32778978 57.93294014 -31.56296168 59.62388764 -34 62 C-34.33 62.99 -34.66 63.98 -35 65 C-36.671875 66.6484375 -36.671875 66.6484375 -38.75 68.375 C-41.21262656 70.45133219 -43.45558548 72.4767755 -45.6875 74.8125 C-48.07639957 77.07226987 -49.98467182 77.82737237 -53 79 C-53.33 79.99 -53.66 80.98 -54 82 C-56.30252273 83.75919785 -58.57566499 85.36453372 -61 86.9375 C-61.67901367 87.38335449 -62.35802734 87.82920898 -63.05761719 88.28857422 C-75.00137359 96 -75.00137359 96 -81 96 C-81 96.66 -81 97.32 -81 98 C-102.94550401 105.18723979 -124.39880429 107.28782546 -145.68530273 96.95507812 C-148.82388572 95.36147189 -151.91310972 93.6917477 -155 92 C-155.77214844 91.62746094 -156.54429687 91.25492187 -157.33984375 90.87109375 C-159 90 -159 90 -160.75 88.1875 C-162.79040909 86.20376894 -164.5829931 84.95468008 -167 83.5 C-170.10757025 81.62623315 -172.51549641 79.66854089 -175 77 C-176.485 76.01 -176.485 76.01 -178 75 C-178 74.34 -178 73.68 -178 73 C-178.66 73 -179.32 73 -180 73 C-181.69140625 71.35546875 -181.69140625 71.35546875 -183.5625 69.1875 C-184.18253906 68.47980469 -184.80257812 67.77210938 -185.44140625 67.04296875 C-187 65 -187 65 -188 62 C-188.66 62 -189.32 62 -190 62 C-191.60981172 60.09480998 -193.09503268 58.19744338 -194.5625 56.1875 C-194.97435547 55.64029297 -195.38621094 55.09308594 -195.81054688 54.52929688 C-197.66149019 52.03006899 -199.00987428 49.97037715 -200 47 C-200.66 47 -201.32 47 -202 47 C-202 45.68 -202 44.36 -202 43 C-201.34 43 -200.68 43 -200 43 C-198.58984375 44.80078125 -198.58984375 44.80078125 -196.9375 47.3125 C-190.00420551 57.55401507 -190.00420551 57.55401507 -181.26171875 66.1875 C-178.70466501 68.23667605 -178.70641498 68.97250723 -178 72 C-176.20067421 73.06716704 -176.20067421 73.06716704 -174 74 C-171.56702359 75.8247323 -169.34056379 77.63729192 -167.2578125 79.85546875 C-164.53013444 82.44629099 -161.54239241 84.43774075 -158.375 86.4375 C-157.75109375 86.83219482 -157.1271875 87.22688965 -156.484375 87.63354492 C-145.08102029 94.7621081 -132.65957346 100.3824786 -119 101 C-117.98808594 101.06316406 -116.97617188 101.12632812 -115.93359375 101.19140625 C-91.01001333 102.0546811 -68.44891124 88.56212117 -50 73 C-49.36578125 72.48824219 -48.7315625 71.97648437 -48.078125 71.44921875 C-43.52843269 67.71484741 -39.76139581 63.51531392 -36 59 C-35.41863281 58.34128906 -34.83726562 57.68257813 -34.23828125 57.00390625 C-24.12914598 45.11454591 -16.08204687 30.87104352 -9 17 C-8.62617188 16.2678125 -8.25234375 15.535625 -7.8671875 14.78125 C-6.89931058 12.85983507 -5.9451469 10.93267707 -5 9 C-3.44831231 5.83694433 -1.95522322 2.93283483 0 0 Z " fill="#CECDCA" transform="translate(314,286)"/>
<path d="M0 0 C-1.19187984 7.38965503 -8.43807331 14.15224593 -14.09765625 18.6953125 C-24.89496888 26.10045093 -36.39260369 28.41374647 -49.23242188 28.99609375 C-55.1505965 29.40665347 -59.17578431 30.76740756 -64.20288086 33.94580078 C-66 35 -66 35 -68 35 C-67.07704559 28.10780797 -62.47735999 24.12345142 -57.375 19.75 C-49.54033595 15.6875816 -41.14422825 13.93906209 -32.5 12.5625 C-21.84920749 10.83283322 -12.46866915 7.59009583 -3.70703125 1.13671875 C-2 0 -2 0 0 0 Z " fill="#0F0B0A" transform="translate(302,168)"/>
<path d="M0 0 C2.13755006 1.06630672 4.27204343 2.13801227 6.40234375 3.21875 C7.23894531 3.6415625 8.07554688 4.064375 8.9375 4.5 C9.77152344 4.9228125 10.60554688 5.345625 11.46484375 5.78125 C15.75831569 7.84529198 19.7316259 9.21107358 24.41870117 10.140625 C32.39388644 11.75717868 39.71604532 14.28232321 47.1875 17.5 C48.07179687 17.87970947 48.95609375 18.25941895 49.8671875 18.65063477 C56.80776697 21.72699613 63.05489839 25.06587807 68 31 C68.40000196 32.98773981 68.74237287 34.98884626 69 37 C68.20078125 36.60167969 67.4015625 36.20335937 66.578125 35.79296875 C56.89456634 31.12167461 48.24526915 27.98765206 37.4375 27.9375 C26.9196511 27.3635862 16.03506234 21.70538564 8.375 14.546875 C6.70534908 12.43102427 5.32559345 10.34218032 4 8 C3.19266005 6.85052513 2.38077576 5.70421584 1.5625 4.5625 C0 2 0 2 0 0 Z " fill="#0F0C0B" transform="translate(101,168)"/>
<path d="M0 0 C2.1875 -0.25 2.1875 -0.25 5 0 C5.7425 0.598125 6.485 1.19625 7.25 1.8125 C17.10216191 9.64944697 32.05882394 8.51579273 44 9 C45.03511719 9.04382813 46.07023437 9.08765625 47.13671875 9.1328125 C72.07263189 9.65197581 72.07263189 9.65197581 94 0 C97.3125 -0.25 97.3125 -0.25 100 0 C99.69628906 1.85913086 99.69628906 1.85913086 99 4 C96.59371279 5.72690015 94.33403994 7.1553349 91.75 8.5625 C91.02707764 8.96017578 90.30415527 9.35785156 89.55932617 9.76757812 C79.23941134 15.2255201 68.55361259 16.59739259 57 17 C56.25830566 17.02723145 55.51661133 17.05446289 54.75244141 17.08251953 C39.78935071 17.56247342 24.48058288 17.24222804 11 10 C8.81346033 8.9147297 6.62591485 7.83148408 4.4375 6.75 C2.62399495 5.8353233 0.81113613 4.91935844 -1 4 C-0.67 2.68 -0.34 1.36 0 0 Z " fill="#120E0C" transform="translate(152,293)"/>
<path d="M0 0 C1.10794922 0.29003906 1.10794922 0.29003906 2.23828125 0.5859375 C5.48567232 1.4194483 8.74059872 2.21483283 12 3 C12.83917969 3.21269531 13.67835938 3.42539062 14.54296875 3.64453125 C33.11401161 7.748466 54.91160629 5.3201158 73 0 C66.22560097 8.33587398 60.00721446 14.30970606 49 16 C34.48468708 17.20213009 19.13549495 17.51331451 6.9140625 8.625 C4.18111048 6.30477951 2.09681193 3.90848106 0 1 C0 0.67 0 0.34 0 0 Z " fill="#D69941" transform="translate(166,304)"/>
<path d="M0 0 C5.60703213 0.21377721 5.60703213 0.21377721 11 -1 C18.73634709 -1.73852453 24.91345857 -0.65611492 32.15234375 2.04296875 C36.12097837 3.37673484 39.83451835 3.72230122 44 4 C37.60284055 8.26477297 29.73289288 8.49804273 22.25 9.125 C21.26990967 9.20919189 20.28981934 9.29338379 19.2800293 9.38012695 C12.49299864 9.93636703 5.80923544 10.27339465 -1 10 C-1.70721191 9.98066406 -2.41442383 9.96132813 -3.14306641 9.94140625 C-27.09169593 9.27220271 -27.09169593 9.27220271 -35 4 C-34.35675781 3.89042969 -33.71351563 3.78085937 -33.05078125 3.66796875 C-27.77045316 2.74146325 -22.57852879 1.66822094 -17.375 0.375 C-5.06174089 -2.53087045 -5.06174089 -2.53087045 0 0 Z " fill="#C98F40" transform="translate(197,293)"/>
<path d="M0 0 C2.80568094 1.10526825 5.56445247 2.25560112 8.3125 3.5 C16.02368881 6.63675477 22.9911332 7.41649369 31.25 7.4375 C32.26545898 7.44064209 33.28091797 7.44378418 34.32714844 7.44702148 C42.30528779 7.31984672 48.00797741 5.94919794 55 2 C55.99 1.67 56.98 1.34 58 1 C56.6702545 4.81462345 55.04682424 7.47690006 52.375 10.5 C51.74335938 11.2321875 51.11171875 11.964375 50.4609375 12.71875 C43.80775136 18.88614795 38.56660243 20.82012057 29.5 20.625 C28.15228516 20.65400391 28.15228516 20.65400391 26.77734375 20.68359375 C18.84819264 20.62588523 14.20915247 17.82711051 8.375 12.6875 C0 3.21052632 0 3.21052632 0 0 Z " fill="#DED0B4" transform="translate(173,319)"/>
<path d="M0 0 C0.66 0.66 1.32 1.32 2 2 C2.46277344 2.45503906 2.92554687 2.91007813 3.40234375 3.37890625 C4.53012978 4.52323682 5.62383869 5.70163843 6.69140625 6.90234375 C15.52302909 16.50834688 26.69311511 19.85038647 39.125 22.625 C60.92271528 27.59929025 60.92271528 27.59929025 69.125 34.75 C70.05570312 35.54921875 70.98640625 36.3484375 71.9453125 37.171875 C72.62335938 37.77515625 73.30140625 38.3784375 74 39 C73.67 40.65 73.34 42.3 73 44 C72.49855469 43.6596875 71.99710937 43.319375 71.48046875 42.96875 C59.66293235 35.39908443 46.64497591 30.25669288 32.94995117 27.36669922 C24.29533766 25.51015664 16.88680934 22.62093714 10 17 C7.81785432 16.22166466 7.81785432 16.22166466 6 16 C5.67 14.68 5.34 13.36 5 12 C4.34 12 3.68 12 3 12 C2.49166409 10.75336669 1.99368855 9.50250613 1.5 8.25 C1.2215625 7.55390625 0.943125 6.8578125 0.65625 6.140625 C0 4 0 4 0 0 Z " fill="#D79E2B" transform="translate(93,152)"/>
<path d="M0 0 C0.33 0 0.66 0 1 0 C1.18194291 4.63954425 0.85437682 7.77614168 -1 12 C-1.309375 13.7325 -1.309375 13.7325 -1.625 15.5 C-4.42960258 27.27933083 -13.35717135 36.3823725 -23 43 C-23.144375 42.401875 -23.28875 41.80375 -23.4375 41.1875 C-23.8872439 39.43849596 -24.42892341 37.71322977 -25 36 C-24.52691406 35.69449219 -24.05382812 35.38898438 -23.56640625 35.07421875 C-16.87039787 30.44052874 -9.6269312 23.88079361 -7 16 C-7.75925781 16.51691406 -8.51851563 17.03382813 -9.30078125 17.56640625 C-10.29464844 18.22511719 -11.28851563 18.88382813 -12.3125 19.5625 C-13.29863281 20.22378906 -14.28476562 20.88507813 -15.30078125 21.56640625 C-16.19152344 22.03949219 -17.08226562 22.51257813 -18 23 C-18.99 22.67 -19.98 22.34 -21 22 C-19.70857034 17.95578607 -18.54000382 16.30094297 -14.875 14.1875 C-8.90266001 10.46322983 -3.91237031 5.86855547 0 0 Z " fill="#DCA22C" transform="translate(309,152)"/>
<path d="M0 0 C0.66 0.33 1.32 0.66 2 1 C1.34 1.99 0.68 2.98 0 4 C0.66 4.33 1.32 4.66 2 5 C-6.006469 8.98301615 -14.1657835 11.21536631 -22.97265625 12.67578125 C-35.98244284 14.83972757 -44.95969419 17.98399278 -53 29 C-54.86165731 32.0447105 -55.22951851 34.19637057 -55.125 37.75 C-55.10695312 38.54921875 -55.08890625 39.3484375 -55.0703125 40.171875 C-55.04710937 40.77515625 -55.02390625 41.3784375 -55 42 C-55.66 42 -56.32 42 -57 42 C-57.49041845 33.13614054 -56.57699881 26.86027929 -50.875 19.875 C-42.5452778 11.00506569 -33.74501217 8.30880365 -22.09765625 6.0390625 C-21.21891846 5.86713379 -20.34018066 5.69520508 -19.43481445 5.51806641 C-17.68132578 5.17971022 -15.92597484 4.85082908 -14.16870117 4.53271484 C-10.23396713 3.79170597 -6.67006897 2.97532869 -3.015625 1.3125 C-1.52289063 0.6628125 -1.52289063 0.6628125 0 0 Z " fill="#E9AE32" transform="translate(288,170)"/>
<path d="M0 0 C3.85025879 0.60355408 6.86101159 1.76772603 10.3125 3.5625 C11.19550781 4.01753906 12.07851563 4.47257812 12.98828125 4.94140625 C13.65214844 5.29074219 14.31601562 5.64007813 15 6 C15 6.66 15 7.32 15 8 C15.56203125 8.11214844 16.1240625 8.22429688 16.703125 8.33984375 C19.31513108 9.09057339 21.39471322 10.21167376 23.75 11.5625 C24.54921875 12.01753906 25.3484375 12.47257812 26.171875 12.94140625 C26.77515625 13.29074219 27.3784375 13.64007813 28 14 C28 14.99 28 15.98 28 17 C28.7425 17.2475 29.485 17.495 30.25 17.75 C33.24973455 19.1135157 34.92077267 20.45872215 37 23 C37 23.99 37 24.98 37 26 C37.99 26.33 38.98 26.66 40 27 C40 27.66 40 28.32 40 29 C40.66 29 41.32 29 42 29 C42.495 30.98 42.495 30.98 43 33 C43.66 33 44.32 33 45 33 C45.495 34.98 45.495 34.98 46 37 C46.66 37 47.32 37 48 37 C48.84026396 38.76755526 49.67198722 40.53917263 50.5 42.3125 C50.9640625 43.29863281 51.428125 44.28476563 51.90625 45.30078125 C53 48 53 48 53 51 C53.66 51 54.32 51 55 51 C55.495 54.465 55.495 54.465 56 58 C56.66 58 57.32 58 58 58 C58.495 62.95 58.495 62.95 59 68 C59.66 68 60.32 68 61 68 C61.13277344 68.63808594 61.26554687 69.27617188 61.40234375 69.93359375 C61.57894531 70.75988281 61.75554687 71.58617188 61.9375 72.4375 C62.11152344 73.26121094 62.28554688 74.08492188 62.46484375 74.93359375 C62.80752994 76.97661204 62.80752994 76.97661204 64 78 C65.2730416 85.2139024 65.56527074 92.69938465 65 100 C64.34 100.66 63.68 101.32 63 102 C62.87882812 100.98421875 62.75765625 99.9684375 62.6328125 98.921875 C62.11228029 94.61144764 61.56198432 90.30520127 61 86 C60.855625 84.88367188 60.71125 83.76734375 60.5625 82.6171875 C59.69820593 76.70603344 58.29006956 71.59869247 55.8046875 66.15625 C55 64 55 64 55 60 C54.34 60 53.68 60 53 60 C52.814375 58.80375 52.62875 57.6075 52.4375 56.375 C49.38738971 42.83080398 40.89940813 31.40443772 31 22 C30.48695313 21.41992188 29.97390625 20.83984375 29.4453125 20.2421875 C21.48880583 11.53442269 10.5793431 5.96581411 0 1 C0 0.67 0 0.34 0 0 Z " fill="#B8B7B7" transform="translate(264,43)"/>
<path d="M0 0 C0.66 0 1.32 0 2 0 C3.41015625 1.80078125 3.41015625 1.80078125 5.0625 4.3125 C11.99579449 14.55401507 11.99579449 14.55401507 20.73828125 23.1875 C23.29533499 25.23667605 23.29358502 25.97250723 24 29 C25.79932579 30.06716704 25.79932579 30.06716704 28 31 C30.43297641 32.8247323 32.65943621 34.63729192 34.7421875 36.85546875 C37.46986556 39.44629099 40.45760759 41.43774075 43.625 43.4375 C44.24890625 43.83219482 44.8728125 44.22688965 45.515625 44.63354492 C59.87948485 53.61280453 74.26984002 57.34871148 91 59 C91 59.33 91 59.66 91 60 C74.94712152 63.18977283 60.73007172 56.52466564 47 49 C46.22785156 48.62746094 45.45570313 48.25492187 44.66015625 47.87109375 C43 47 43 47 41.25 45.1875 C39.20959091 43.20376894 37.4170069 41.95468008 35 40.5 C31.89242975 38.62623315 29.48450359 36.66854089 27 34 C26.01 33.34 25.02 32.68 24 32 C24 31.34 24 30.68 24 30 C23.34 30 22.68 30 22 30 C20.30859375 28.35546875 20.30859375 28.35546875 18.4375 26.1875 C17.81746094 25.47980469 17.19742188 24.77210938 16.55859375 24.04296875 C15 22 15 22 14 19 C13.34 19 12.68 19 12 19 C10.39018828 17.09480998 8.90496732 15.19744338 7.4375 13.1875 C6.8197168 12.36668945 6.8197168 12.36668945 6.18945312 11.52929688 C4.33850981 9.03006899 2.99012572 6.97037715 2 4 C1.34 4 0.68 4 0 4 C0 2.68 0 1.36 0 0 Z " fill="#D0D0CE" transform="translate(112,329)"/>
<path d="M0 0 C0.66 0 1.32 0 2 0 C1.67 0.99 1.34 1.98 1 3 C0.8292143 5.32940494 0.7337175 7.66479999 0.6875 10 C0.65011719 11.2375 0.61273438 12.475 0.57421875 13.75 C0.68098278 17.03886538 0.68098278 17.03886538 2.8125 18.91015625 C5.09462319 20.19499642 5.09462319 20.19499642 8.3125 20.4375 C12.76708409 21.11701283 15.22214556 22.60992883 19 25 C19 26.65 19 28.3 19 30 C-0.80578311 27.43370188 -0.80578311 27.43370188 -5 22 C-6.12235005 15.20555827 -5.0481553 7.41359217 -1.5 1.5 C-1.005 1.005 -0.51 0.51 0 0 Z " fill="#CBB882" transform="translate(169,239)"/>
<path d="M0 0 C3.07836613 0.95535501 4.00121326 2.00190656 5.75 4.75 C7.91327928 10.39125868 7.94097903 17.10221016 7 23 C1.87991833 28.08733061 -4.86481232 29.34265846 -11.765625 30.08203125 C-14 30 -14 30 -17 28 C-16.3671875 26.13671875 -16.3671875 26.13671875 -15 24 C-12.3203125 22.76953125 -12.3203125 22.76953125 -9.125 21.8125 C-8.07570312 21.48894531 -7.02640625 21.16539062 -5.9453125 20.83203125 C-3 20 -3 20 -0.6796875 19.57421875 C-0.12539062 19.38472656 0.42890625 19.19523437 1 19 C2.01173798 15.96478606 2.16573514 13.80266921 2.1875 10.625 C2.20167969 9.68914062 2.21585938 8.75328125 2.23046875 7.7890625 C1.98668108 4.83881846 1.23112508 2.67635888 0 0 Z " fill="#CAB57D" transform="translate(232,239)"/>
<path d="M0 0 C0.66 0.66 1.32 1.32 2 2 C2.46277344 2.45503906 2.92554687 2.91007813 3.40234375 3.37890625 C4.53012978 4.52323682 5.62383869 5.70163843 6.69140625 6.90234375 C14.16557436 15.03186689 23.57952338 18.87385702 34 22 C34 22.99 34 23.98 34 25 C26.8916891 27.10018277 21.35348247 24.36717259 15 21 C13.31860941 19.68528283 11.64913874 18.35495276 10 17 C7.81785432 16.22166466 7.81785432 16.22166466 6 16 C5.67 14.68 5.34 13.36 5 12 C4.34 12 3.68 12 3 12 C2.49166409 10.75336669 1.99368855 9.50250613 1.5 8.25 C1.2215625 7.55390625 0.943125 6.8578125 0.65625 6.140625 C0 4 0 4 0 0 Z " fill="#9C7026" transform="translate(93,152)"/>
<path d="M0 0 C0.33 0 0.66 0 1 0 C1.22963672 5.85573628 1.0398876 9.76887293 -3 14.1875 C-3.99 15.0846875 -3.99 15.0846875 -5 16 C-5.66 16.66 -6.32 17.32 -7 18 C-7 17.34 -7 16.68 -7 16 C-7.75925781 16.51691406 -8.51851563 17.03382813 -9.30078125 17.56640625 C-10.29464844 18.22511719 -11.28851563 18.88382813 -12.3125 19.5625 C-13.79169922 20.55443359 -13.79169922 20.55443359 -15.30078125 21.56640625 C-16.19152344 22.03949219 -17.08226562 22.51257813 -18 23 C-18.99 22.67 -19.98 22.34 -21 22 C-19.70857034 17.95578607 -18.54000382 16.30094297 -14.875 14.1875 C-8.90266001 10.46322983 -3.91237031 5.86855547 0 0 Z " fill="#A67521" transform="translate(309,152)"/>
<path d="M0 0 C0.99 0.33 1.98 0.66 3 1 C2.11957031 1.73605469 1.23914063 2.47210938 0.33203125 3.23046875 C-0.84124844 4.21602369 -2.01441977 5.20170766 -3.1875 6.1875 C-3.76564453 6.67025391 -4.34378906 7.15300781 -4.93945312 7.65039062 C-10.34704106 12.20254092 -15.17547973 17.0457412 -19.6875 22.5 C-20.45449219 23.4178125 -21.22148438 24.335625 -22.01171875 25.28125 C-23.87125719 27.82395875 -24.99465121 30.03233939 -26 33 C-26.66 33 -27.32 33 -28 33 C-28.2475 33.825 -28.495 34.65 -28.75 35.5 C-29.71858731 38.21204447 -30.74118518 40.53038034 -32.0625 43.0625 C-33.5946103 46.02989579 -34.58136939 48.65095514 -35 52 C-35.66 52 -36.32 52 -37 52 C-37.73285399 45.87967881 -35.22359555 41.81613687 -32.375 36.625 C-31.73498047 35.40683594 -31.73498047 35.40683594 -31.08203125 34.1640625 C-28.21968835 28.83241483 -25.15325164 23.44540929 -21 19 C-20.34 19 -19.68 19 -19 19 C-18.67 18.01 -18.34 17.02 -18 16 C-17.34 16 -16.68 16 -16 16 C-15.90976563 15.41089844 -15.81953125 14.82179688 -15.7265625 14.21484375 C-14.34798203 10.01239682 -10.36107298 7.68050047 -7 5 C-6.34644531 4.47277344 -5.69289063 3.94554687 -5.01953125 3.40234375 C-3.1875 2 -3.1875 2 0 0 Z " fill="#8B8C8D" transform="translate(121,52)"/>
<path d="M0 0 C1.32 0.33 2.64 0.66 4 1 C4 2.32 4 3.64 4 5 C4.66 5 5.32 5 6 5 C6.33 8.3 6.66 11.6 7 15 C7.66 15 8.32 15 9 15 C9.13277344 15.63808594 9.26554687 16.27617188 9.40234375 16.93359375 C9.57894531 17.75988281 9.75554687 18.58617188 9.9375 19.4375 C10.11152344 20.26121094 10.28554688 21.08492187 10.46484375 21.93359375 C10.80752994 23.97661204 10.80752994 23.97661204 12 25 C13.2730416 32.2139024 13.56527074 39.69938465 13 47 C12.34 47.66 11.68 48.32 11 49 C10.87882812 47.98421875 10.75765625 46.9684375 10.6328125 45.921875 C10.11228029 41.61144764 9.56198432 37.30520127 9 33 C8.855625 31.88367188 8.71125 30.76734375 8.5625 29.6171875 C7.69820593 23.70603344 6.29006956 18.59869247 3.8046875 13.15625 C3 11 3 11 3 7 C2.34 7 1.68 7 1 7 C0.67 4.69 0.34 2.38 0 0 Z " fill="#BEBDBB" transform="translate(316,96)"/>
<path d="M0 0 C-2.13741084 3.20611627 -3.02817793 3.72636197 -6.4375 5.1875 C-7.21996094 5.53167969 -8.00242188 5.87585938 -8.80859375 6.23046875 C-11 7 -11 7 -14 7 C-14 7.66 -14 8.32 -14 9 C-27.71961196 13.49322745 -39.66159509 15.32382847 -54 15 C-54 14.67 -54 14.34 -54 14 C-53.43192627 13.93006836 -52.86385254 13.86013672 -52.27856445 13.78808594 C-36.65386309 11.82335042 -23.06757822 9.04422622 -9.19140625 1.390625 C-5.83053449 -0.07384299 -3.62092391 -0.28399403 0 0 Z " fill="#DBDAD8" transform="translate(247,375)"/>
<path d="M0 0 C0.66 0.33 1.32 0.66 2 1 C1.01 2.485 1.01 2.485 0 4 C0.66 4.33 1.32 4.66 2 5 C-4.7957338 8.38070596 -13.55125377 12.71474184 -21.29296875 11.69921875 C-23 11 -23 11 -24 9 C-23 7 -23 7 -21.20581055 6.34570312 C-20.05786011 6.06629883 -20.05786011 6.06629883 -18.88671875 5.78125 C-18.05076172 5.57113281 -17.21480469 5.36101562 -16.35351562 5.14453125 C-15.47373047 4.93183594 -14.59394531 4.71914062 -13.6875 4.5 C-11.96121447 4.07707927 -10.23591019 3.65012867 -8.51171875 3.21875 C-7.74303467 3.03248047 -6.97435059 2.84621094 -6.18237305 2.65429688 C-3.94641459 2.06052859 -3.94641459 2.06052859 -1.84301758 0.86132812 C-1.23482178 0.57708984 -0.62662598 0.29285156 0 0 Z " fill="#CD962C" transform="translate(288,170)"/>
<path d="M0 0 C2 1 2 1 3.11328125 3.7734375 C3.50902344 4.96195312 3.90476562 6.15046875 4.3125 7.375 C6.50413588 13.77729278 9.05744047 19.90052231 12 26 C12.32742187 26.68320312 12.65484375 27.36640625 12.9921875 28.0703125 C15.37799341 32.94051133 17.99465495 37.68125167 20.60546875 42.43359375 C22.14070905 45.25895194 23.59352044 48.10890314 25 51 C24.01 51 23.02 51 22 51 C17.04773312 44.23709801 9 32.52774636 9 24 C8.34 24 7.68 24 7 24 C6.5875 22.88625 6.175 21.7725 5.75 20.625 C4.85412808 18.20743176 3.92461379 15.82382864 2.91015625 13.453125 C0.93062366 8.80368902 -0.54359151 5.16411931 0 0 Z " fill="#929293" transform="translate(87,277)"/>
<path d="M0 0 C0.66 0 1.32 0 2 0 C1.54997651 3.35533544 1.088474 6.70899819 0.625 10.0625 C0.49867187 11.00544922 0.37234375 11.94839844 0.2421875 12.91992188 C-0.48116298 18.10996155 -1.40684931 23.00581892 -3 28 C-3.66 28 -4.32 28 -5 28 C-4.97679688 29.10859375 -4.95359375 30.2171875 -4.9296875 31.359375 C-4.91092423 32.82290992 -4.89272463 34.28645214 -4.875 35.75 C-4.85824219 36.47960937 -4.84148437 37.20921875 -4.82421875 37.9609375 C-4.78822064 41.92072996 -5.06846125 44.5646681 -7 48 C-7.02887512 44.35418313 -7.04675585 40.70839537 -7.0625 37.0625 C-7.07087891 36.02158203 -7.07925781 34.98066406 -7.08789062 33.90820312 C-7.09272461 32.42416992 -7.09272461 32.42416992 -7.09765625 30.91015625 C-7.10289307 29.99371338 -7.10812988 29.07727051 -7.11352539 28.13305664 C-7 26 -7 26 -6 25 C-5.602507 22.65276034 -5.25631277 20.29671452 -4.9375 17.9375 C-4.67259766 16.00197266 -4.67259766 16.00197266 -4.40234375 14.02734375 C-4.26957031 13.02832031 -4.13679688 12.02929688 -4 11 C-3.34 11 -2.68 11 -2 11 C-1.93941406 10.28972656 -1.87882812 9.57945313 -1.81640625 8.84765625 C-1.73261719 7.92855469 -1.64882812 7.00945312 -1.5625 6.0625 C-1.48128906 5.14597656 -1.40007812 4.22945313 -1.31640625 3.28515625 C-1 1 -1 1 0 0 Z " fill="#38393C" transform="translate(82,106)"/>
<path d="M0 0 C0.33 0 0.66 0 1 0 C1.49483374 4.94833742 0.31322658 7.86723032 -1.9765625 12.09765625 C-3.17817904 14.33119539 -4.11012002 16.62698672 -5 19 C-5.66 19 -6.32 19 -7 19 C-7.33 21.31 -7.66 23.62 -8 26 C-8.66 26 -9.32 26 -10 26 C-10.33 27.65 -10.66 29.3 -11 31 C-11.66 31 -12.32 31 -13 31 C-13 31.66 -13 32.32 -13 33 C-13.66 33 -14.32 33 -15 33 C-14.74511243 27.13758597 -12.74959289 23.66078334 -9.62109375 18.76171875 C-7.35290082 14.89759248 -5.77878126 10.83957456 -4.17578125 6.6640625 C-3.04117509 4.09329373 -1.82813954 2.12527516 0 0 Z " fill="#CCCBCA" transform="translate(314,286)"/>
<path d="M0 0 C0.90286751 3.08601081 1.1216323 5.83361006 1.11352539 9.04394531 C1.11341209 10.54504852 1.11341209 10.54504852 1.11329651 12.07647705 C1.10813522 13.14952087 1.10297394 14.2225647 1.09765625 15.328125 C1.09553383 16.98433868 1.09553383 16.98433868 1.09336853 18.67401123 C1.08777258 22.19936842 1.07522079 25.72466202 1.0625 29.25 C1.05748448 31.64062408 1.05292166 34.03124916 1.04882812 36.421875 C1.03780447 42.28127168 1.02107033 48.1406313 1 54 C0.01 53.67 -0.98 53.34 -2 53 C-2.05058332 45.7734678 -2.08568412 38.54698101 -2.10986328 31.3203125 C-2.11993983 28.86033421 -2.13360131 26.40036794 -2.15087891 23.94042969 C-2.17505461 20.41077715 -2.1864664 16.88128253 -2.1953125 13.3515625 C-2.20563507 12.24632233 -2.21595764 11.14108215 -2.22659302 10.00234985 C-2.22674408 8.98144257 -2.22689514 7.96053528 -2.22705078 6.90869141 C-2.231492 6.00712311 -2.23593323 5.10555481 -2.24050903 4.17666626 C-2 2 -2 2 0 0 Z " fill="#8F8F8F" transform="translate(74,159)"/>
<path d="M0 0 C0.66 0 1.32 0 2 0 C3.41015625 1.80078125 3.41015625 1.80078125 5.0625 4.3125 C11.99579449 14.55401507 11.99579449 14.55401507 20.73828125 23.1875 C23.29533499 25.23667605 23.29358502 25.97250723 24 29 C25.31403276 29.70394612 26.6520257 30.36345658 28 31 C29.70496537 32.62746694 31.37897032 34.28891311 33 36 C32.34 36.66 31.68 37.32 31 38 C30.401875 37.38125 29.80375 36.7625 29.1875 36.125 C26.99188856 33.86323046 26.99188856 33.86323046 24 32 C24 31.34 24 30.68 24 30 C23.34 30 22.68 30 22 30 C20.30859375 28.35546875 20.30859375 28.35546875 18.4375 26.1875 C17.81746094 25.47980469 17.19742188 24.77210938 16.55859375 24.04296875 C15 22 15 22 14 19 C13.34 19 12.68 19 12 19 C10.39018828 17.09480998 8.90496732 15.19744338 7.4375 13.1875 C6.8197168 12.36668945 6.8197168 12.36668945 6.18945312 11.52929688 C4.33850981 9.03006899 2.99012572 6.97037715 2 4 C1.34 4 0.68 4 0 4 C0 2.68 0 1.36 0 0 Z " fill="#A6A6A5" transform="translate(112,329)"/>
<path d="M0 0 C0.99 0.33 1.98 0.66 3 1 C3 1.66 3 2.32 3 3 C3.66 3 4.32 3 5 3 C5.33 4.32 5.66 5.64 6 7 C6.66 7 7.32 7 8 7 C8.33 8.32 8.66 9.64 9 11 C9.66 11 10.32 11 11 11 C11.84026396 12.76755526 12.67198722 14.53917263 13.5 16.3125 C13.9640625 17.29863281 14.428125 18.28476563 14.90625 19.30078125 C16 22 16 22 16 25 C16.66 25 17.32 25 18 25 C18 26.98 18 28.96 18 31 C15.81816902 28.49089437 14.51293332 25.97507239 13.25 22.9375 C10.357803 16.20758005 6.42626411 9.95594149 1.78125 4.296875 C0 2 0 2 0 0 Z " fill="#C9C9C8" transform="translate(301,69)"/>
<path d="M0 0 C1.6117046 4.8351138 1.60116168 10.19651495 0 15 C-0.66 15 -1.32 15 -2 15 C-2.33 18.3 -2.66 21.6 -3 25 C-3.99 25 -4.98 25 -6 25 C-6.66 25.33 -7.32 25.66 -8 26 C-7.39927271 22.50711141 -6.46894621 19.49809463 -5.0625 16.25 C-3.36576573 12.14341126 -2.22743354 8.17161477 -1.39453125 3.8125 C-1 2 -1 2 0 0 Z " fill="#AEADAC" transform="translate(319,264)"/>
<path d="M0 0 C0.26305952 8.2425317 -0.39385449 15.91191011 -2 24 C-2.66 24 -3.32 24 -4 24 C-4.02714434 21.2915983 -4.04690846 18.58347279 -4.0625 15.875 C-4.07087891 15.11445313 -4.07925781 14.35390625 -4.08789062 13.5703125 C-4.10635915 9.28561405 -4.03698291 5.18706307 -3 1 C-1 0 -1 0 0 0 Z " fill="#0A0D11" transform="translate(82,127)"/>
<path d="M0 0 C0.33 0 0.66 0 1 0 C1.22963672 5.85573628 1.0398876 9.76887293 -3 14.1875 C-3.99 15.0846875 -3.99 15.0846875 -5 16 C-5.66 16.66 -6.32 17.32 -7 18 C-6.125 13.25 -6.125 13.25 -5 11 C-5.66 11 -6.32 11 -7 11 C-6.40501518 7.63833578 -5.25635842 5.78840322 -3 3.25 C-2.46375 2.63640625 -1.9275 2.0228125 -1.375 1.390625 C-0.694375 0.70226562 -0.694375 0.70226562 0 0 Z " fill="#7B5618" transform="translate(309,152)"/>
<path d="M0 0 C0.99 0 1.98 0 3 0 C1.9413873 6.75710231 0.77874156 13.39324562 -1 20 C-1.33 20 -1.66 20 -2 20 C-3.53778338 7.34445844 -3.53778338 7.34445844 -1 1 C-0.67 0.67 -0.34 0.34 0 0 Z " fill="#2C2C2E" transform="translate(84,113)"/>
<path d="M0 0 C0 0.66 0 1.32 0 2 C-1.70725008 2.48301203 -3.41585974 2.96121958 -5.125 3.4375 C-6.55199219 3.83775391 -6.55199219 3.83775391 -8.0078125 4.24609375 C-13.88937136 5.72800088 -19.34739566 6.13334888 -25.375 6.0625 C-26.11105469 6.05798828 -26.84710938 6.05347656 -27.60546875 6.04882812 C-29.40368158 6.03715142 -31.20185197 6.01922011 -33 6 C-33 5.67 -33 5.34 -33 5 C-32.10861328 4.87939209 -32.10861328 4.87939209 -31.19921875 4.75634766 C-28.46549987 4.38380937 -25.73276777 4.00444973 -23 3.625 C-22.06542969 3.49867188 -21.13085938 3.37234375 -20.16796875 3.2421875 C-15.90178907 2.64551901 -11.7313631 1.99479435 -7.5625 0.8984375 C-4 0 -4 0 0 0 Z " fill="#ECEBE8" transform="translate(226,384)"/>
<path d="M0 0 C0.99 0.33 1.98 0.66 3 1 C3.02687279 2.81242052 3.04633715 4.62495233 3.0625 6.4375 C3.07410156 7.44683594 3.08570313 8.45617187 3.09765625 9.49609375 C3 12 3 12 2 13 C1.76321284 15.69235776 1.57801975 18.36498156 1.4375 21.0625 C1.39431641 21.82111328 1.35113281 22.57972656 1.30664062 23.36132812 C1.20026367 25.24065438 1.09960066 27.12030244 1 29 C0.67 29 0.34 29 0 29 C-0.19925938 25.66726265 -0.38223367 22.33381434 -0.5625 19 C-0.61857422 18.06542969 -0.67464844 17.13085938 -0.73242188 16.16796875 C-1.02366812 10.61487364 -0.87461303 5.49386553 0 0 Z " fill="#BCBCBA" transform="translate(328,206)"/>
<path d="M0 0 C-0.79664063 0.63615234 -0.79664063 0.63615234 -1.609375 1.28515625 C-9.13173971 7.4748759 -9.13173971 7.4748759 -12.234375 16.44140625 C-12.24816955 18.64508507 -12.17923763 20.80433908 -12 23 C-12.66 23 -13.32 23 -14 23 C-14.43356906 15.16364076 -13.69971845 9.46040439 -9.5625 2.625 C-6.36652153 -0.69881761 -4.35158441 -1.2627771 0 0 Z " fill="#E0AC42" transform="translate(245,189)"/>
<path d="M0 0 C3.96 1.32 7.92 2.64 12 4 C12 4.99 12 5.98 12 7 C6.55106131 8.19876651 3.77830905 7.91360308 -1 5 C-0.67 3.35 -0.34 1.7 0 0 Z " fill="#B07D21" transform="translate(115,170)"/>
<path d="M0 0 C0.67804688 0.43570312 1.35609375 0.87140625 2.0546875 1.3203125 C14.22393768 9.19195437 14.22393768 9.19195437 27 16 C26.34 16.66 25.68 17.32 25 18 C22.74474655 16.92664408 20.49624452 15.84192442 18.25 14.75 C17.61578125 14.44964844 16.9815625 14.14929688 16.328125 13.83984375 C12.5496922 11.98998602 9.84109424 10.07785209 7 7 C5.16627031 5.65079238 3.29057453 4.40176555 1.390625 3.1484375 C0.93171875 2.76945312 0.4728125 2.39046875 0 2 C0 1.34 0 0.68 0 0 Z " fill="#C2C2C1" transform="translate(144,365)"/>
<path d="M0 0 C0.66 0 1.32 0 2 0 C1.67 0.99 1.34 1.98 1 3 C0.77674186 5.05893621 0.59294241 7.12233653 0.4375 9.1875 C0.35371094 10.27417969 0.26992187 11.36085937 0.18359375 12.48046875 C0.12300781 13.31191406 0.06242188 14.14335937 0 15 C-0.66 15 -1.32 15 -2 15 C-2.33 14.34 -2.66 13.68 -3 13 C-3.33 15.97 -3.66 18.94 -4 22 C-4.33 22 -4.66 22 -5 22 C-5.26790089 14.73690925 -5.35426633 7.92377721 -1.5 1.5 C-1.005 1.005 -0.51 0.51 0 0 Z " fill="#D7C699" transform="translate(169,239)"/>
<path d="M0 0 C0.99 0.33 1.98 0.66 3 1 C2.09636719 1.75925781 1.19273438 2.51851562 0.26171875 3.30078125 C-0.92974813 4.30461555 -2.12115102 5.30852578 -3.3125 6.3125 C-4.20485352 7.06176758 -4.20485352 7.06176758 -5.11523438 7.82617188 C-5.69208984 8.31279297 -6.26894531 8.79941406 -6.86328125 9.30078125 C-7.39219971 9.74591064 -7.92111816 10.19104004 -8.46606445 10.6496582 C-10.05323699 12.00440779 -10.05323699 12.00440779 -11.57104492 13.66870117 C-13 15 -13 15 -15 15 C-15 12 -15 12 -13.49609375 10.3515625 C-11.34530546 8.54767555 -9.19131234 6.75458226 -7 5 C-6.34515625 4.47148438 -5.6903125 3.94296875 -5.015625 3.3984375 C-3.1875 2 -3.1875 2 0 0 Z " fill="#98999A" transform="translate(121,52)"/>
<path d="M0 0 C0.66 0 1.32 0 2 0 C2 2.31 2 4.62 2 7 C1.34 7 0.68 7 0 7 C-0.33 8.65 -0.66 10.3 -1 12 C-1.66 12 -2.32 12 -3 12 C-3 12.66 -3 13.32 -3 14 C-3.66 14 -4.32 14 -5 14 C-4.53411505 8.29290936 -3.06242216 4.84060277 0 0 Z " fill="#D2D1CE" transform="translate(304,305)"/>
<path d="M0 0 C0.66 0 1.32 0 2 0 C1.43009348 3.59357719 0.13617523 5.17249271 -2.5 7.625 C-5.11806646 10.03610916 -5.11806646 10.03610916 -7 13 C-7.99 12.67 -8.98 12.34 -10 12 C-7.35985889 7.79533082 -4.63360138 4.4371905 -1 1 C-0.67 0.67 -0.34 0.34 0 0 Z " fill="#D9D9D6" transform="translate(276,348)"/>
<path d="M0 0 C2.60567359 1.18439708 4.15740208 2.82828445 6.0625 4.9375 C5.7325 5.9275 5.4025 6.9175 5.0625 7.9375 C4.0725 7.2775 3.0825 6.6175 2.0625 5.9375 C-0.47957971 5.60406449 -0.47957971 5.60406449 -2.9375 5.9375 C-3.5975 6.5975 -4.2575 7.2575 -4.9375 7.9375 C-5.16803497 5.09423536 -5.29653101 3.47604651 -3.6875 1.0625 C-1.9375 -0.0625 -1.9375 -0.0625 0 0 Z " fill="#D3C8B3" transform="translate(154.9375,288.0625)"/>
<path d="M0 0 C1.50433594 0.01353516 1.50433594 0.01353516 3.0390625 0.02734375 C3.80992187 0.03894531 4.58078125 0.05054688 5.375 0.0625 C5.045 1.0525 4.715 2.0425 4.375 3.0625 C1.4835914 4.1819613 -1.30262612 4.17018197 -4.375 4.125 C-5.17421875 4.11597656 -5.9734375 4.10695313 -6.796875 4.09765625 C-7.40015625 4.08605469 -8.0034375 4.07445312 -8.625 4.0625 C-8.295 3.0725 -7.965 2.0825 -7.625 1.0625 C-4.98041621 -0.25979189 -2.94738699 -0.03427194 0 0 Z " fill="#9E7325" transform="translate(224.625,261.9375)"/>
<path d="M0 0 C1.32 0.33 2.64 0.66 4 1 C4 2.32 4 3.64 4 5 C4.66 5 5.32 5 6 5 C6.33 8.3 6.66 11.6 7 15 C6.01 14.67 5.02 14.34 4 14 C3.67 11.69 3.34 9.38 3 7 C2.34 7 1.68 7 1 7 C0.67 4.69 0.34 2.38 0 0 Z " fill="#949393" transform="translate(316,96)"/>
<path d="M0 0 C0.33 0 0.66 0 1 0 C1.20068611 15.87650086 1.20068611 15.87650086 0 22 C-0.66 22.33 -1.32 22.66 -2 23 C-2.22428282 15.05042008 -1.95403042 7.72888819 0 0 Z " fill="#DBDAD7" transform="translate(327,221)"/>
<path d="M0 0 C0.99 0.33 1.98 0.66 3 1 C3 6.94 3 12.88 3 19 C-0.83508741 13.24736889 -0.11884965 6.68199149 0 0 Z " fill="#D7D7D5" transform="translate(328,143)"/>
<path d="M0 0 C0.66 0 1.32 0 2 0 C1.88979143 3.08404808 1.75924186 6.16691192 1.625 9.25 C1.5940625 10.12269531 1.563125 10.99539062 1.53125 11.89453125 C1.49257812 12.73886719 1.45390625 13.58320313 1.4140625 14.453125 C1.3826416 15.22817383 1.3512207 16.00322266 1.31884766 16.80175781 C0.96973494 19.20865742 0.19448896 20.89602295 -1 23 C-1.02887512 19.35418313 -1.04675585 15.70839537 -1.0625 12.0625 C-1.07087891 11.02158203 -1.07925781 9.98066406 -1.08789062 8.90820312 C-1.09272461 7.42416992 -1.09272461 7.42416992 -1.09765625 5.91015625 C-1.10289307 4.99371338 -1.10812988 4.07727051 -1.11352539 3.13305664 C-1 1 -1 1 0 0 Z " fill="#888889" transform="translate(76,131)"/>
<path d="M0 0 C2.29335142 1.22858112 2.82736896 2.55403647 3.75 4.9375 C2.76 5.5975 1.77 6.2575 0.75 6.9375 C0.75 5.9475 0.75 4.9575 0.75 3.9375 C-3.85742865 5.14794132 -3.85742865 5.14794132 -8.25 6.9375 C-8.25 5.6175 -8.25 4.2975 -8.25 2.9375 C-2.93644068 -0.0815678 -2.93644068 -0.0815678 0 0 Z " fill="#D4C8B2" transform="translate(251.25,289.0625)"/>
<path d="M0 0 C0.33 0.66 0.66 1.32 1 2 C2.65 1.34 4.3 0.68 6 0 C4.08277831 7.81636537 4.08277831 7.81636537 1 10 C0.34 10 -0.32 10 -1 10 C-1.125 2.25 -1.125 2.25 0 0 Z " fill="#D89E2F" transform="translate(233,201)"/>
<path d="M0 0 C0 0.66 0 1.32 0 2 C-0.99 2.495 -0.99 2.495 -2 3 C-2.26554688 3.64453125 -2.53109375 4.2890625 -2.8046875 4.953125 C-4 7 -4 7 -6.3828125 8.046875 C-7.28773438 8.27890625 -8.19265625 8.5109375 -9.125 8.75 C-10.03507813 8.99234375 -10.94515625 9.2346875 -11.8828125 9.484375 C-12.93082031 9.73960937 -12.93082031 9.73960937 -14 10 C-11.02160153 5.65650223 -5.69716881 0 0 0 Z " fill="#EEB23A" transform="translate(252,180)"/>
<path d="M0 0 C3.16115776 1.36983503 3.9927092 1.9890638 6 5 C5.65234375 6.8984375 5.65234375 6.8984375 5 9 C4.75019246 11.32360662 4.56080272 13.64673962 4.37890625 15.9765625 C4 18 4 18 2 20 C1.01 19.67 0.02 19.34 -1 19 C-0.34 19 0.32 19 1 19 C2.01173798 15.96478606 2.16573514 13.80266921 2.1875 10.625 C2.20167969 9.68914062 2.21585938 8.75328125 2.23046875 7.7890625 C1.98668108 4.83881846 1.23112508 2.67635888 0 0 Z " fill="#D0BD89" transform="translate(232,239)"/>
<path d="M0 0 C0.33 0 0.66 0 1 0 C1.20852314 6.40629424 1.1583195 11.92972642 -1 18 C-1.66 17.67 -2.32 17.34 -3 17 C-3.66 17.66 -4.32 18.32 -5 19 C-4.34 14.71 -3.68 10.42 -3 6 C-2.34 6.66 -1.68 7.32 -1 8 C-0.67 5.36 -0.34 2.72 0 0 Z " fill="#B6B5B3" transform="translate(327,235)"/>
<path d="M0 0 C3.3 0.66 6.6 1.32 10 2 C8.68 2.33 7.36 2.66 6 3 C6 3.66 6 4.32 6 5 C1.94568308 6.15837626 -0.21812119 5.83691257 -4 4 C-3.34 3.525625 -2.68 3.05125 -2 2.5625 C-1.34 2.046875 -0.68 1.53125 0 1 C0 0.67 0 0.34 0 0 Z " fill="#C99127" transform="translate(127,174)"/>
<path d="M0 0 C1 2 1 2 0.375 4.5 C-1.34388657 7.62524832 -2.73547404 7.82811889 -6 9 C-6.33 9.99 -6.66 10.98 -7 12 C-7.66 11.34 -8.32 10.68 -9 10 C-7.84906278 6.54718834 -6.6794007 5.61917837 -3.9375 3.3125 C-2.83728516 2.37857422 -2.83728516 2.37857422 -1.71484375 1.42578125 C-1.14894531 0.95527344 -0.58304687 0.48476563 0 0 Z " fill="#CFCECB" transform="translate(267,356)"/>
<path d="M0 0 C0.66 0.33 1.32 0.66 2 1 C1.01 2.485 1.01 2.485 0 4 C0.66 4.33 1.32 4.66 2 5 C-3.75 8 -3.75 8 -6 8 C-6 7.34 -6 6.68 -6 6 C-6.66 5.67 -7.32 5.34 -8 5 C-7.01 5 -6.02 5 -5 5 C-4.67 4.01 -4.34 3.02 -4 2 C-2.0625 0.75 -2.0625 0.75 0 0 Z " fill="#C08928" transform="translate(288,170)"/>
<path d="M0 0 C1.14453125 1.72265625 1.14453125 1.72265625 2 4 C1.13671875 6.18359375 1.13671875 6.18359375 -0.3125 8.4375 C-2.3555983 11.65607951 -3.43260477 14.21514002 -4 18 C-4.66 18 -5.32 18 -6 18 C-6.36020428 13.00216563 -5.34389935 10.01981128 -3 5.625 C-2.443125 4.56539063 -1.88625 3.50578125 -1.3125 2.4140625 C-0.879375 1.61742188 -0.44625 0.82078125 0 0 Z " fill="#808182" transform="translate(90,86)"/>
<path d="M0 0 C2.12071768 0.24169944 4.08024245 0.49769528 6.125 1.1171875 C7.625 3.1796875 7.625 3.1796875 8.125 5.1171875 C3.8072542 4.60921741 0.09197886 3.92035971 -3.875 2.1171875 C-1.875 0.1171875 -1.875 0.1171875 0 0 Z " fill="#9E7425" transform="translate(178.875,260.8828125)"/>
<path d="M0 0 C0.33 0 0.66 0 1 0 C1.5497272 5.63470383 -0.04952165 8.38987758 -3 13 C-3.33 13 -3.66 13 -4 13 C-4.45543788 7.30702655 -3.58764877 4.45738181 0 0 Z " fill="#CC983A" transform="translate(306,164)"/>
<path d="M0 0 C0.33 0 0.66 0 1 0 C0.88590407 1.45922693 0.75834456 2.91740598 0.625 4.375 C0.55539063 5.18710938 0.48578125 5.99921875 0.4140625 6.8359375 C0 9 0 9 -2 11 C-2.99 11 -3.98 11 -5 11 C-3.93051945 6.72207778 -3.02504439 3.28809173 0 0 Z " fill="#0E1015" transform="translate(87,104)"/>
<path d="M0 0 C0.66 0.99 1.32 1.98 2 3 C1.15955106 6.43183318 0.51471866 8.48528134 -2 11 C-2 10.34 -2 9.68 -2 9 C-2.99 9.33 -3.98 9.66 -5 10 C-3.66511872 6.40608886 -2.03977277 3.24509304 0 0 Z " fill="#BFBEBC" transform="translate(298,316)"/>
<path d="M0 0 C0.66 0 1.32 0 2 0 C2.33 4.95 2.66 9.9 3 15 C2.01 15 1.02 15 0 15 C0 10.05 0 5.1 0 0 Z " fill="#8D8D8E" transform="translate(75,222)"/>
<path d="M0 0 C0.33 0 0.66 0 1 0 C1.25 5.625 1.25 5.625 -1 9 C-1.66 9 -2.32 9 -3 9 C-3.33 9.99 -3.66 10.98 -4 12 C-5 9 -5 9 -3.6875 6 C-2 3 -2 3 0 0 Z " fill="#E1E0DE" transform="translate(314,286)"/>
<path d="M0 0 C0.66 0 1.32 0 2 0 C3.54296875 1.64453125 3.54296875 1.64453125 5.1875 3.8125 C5.73792969 4.52019531 6.28835937 5.22789062 6.85546875 5.95703125 C7.23316406 6.63121094 7.61085938 7.30539062 8 8 C7.67 8.99 7.34 9.98 7 11 C5.29115995 9.37660195 3.62553283 7.70680947 2 6 C2 5.34 2 4.68 2 4 C1.34 4 0.68 4 0 4 C0 2.68 0 1.36 0 0 Z " fill="#969696" transform="translate(112,329)"/>
<path d="M0 0 C2.73569502 1.36784751 3.33631214 3.33762539 4.46875 6.078125 C5.25126587 8.90899122 4.74933629 11.20701927 4 14 C3.33333333 12.66666667 2.66666667 11.33333333 2 10 C1.62875 9.38125 1.2575 8.7625 0.875 8.125 C-0.26915841 5.34632958 -0.13516968 2.97373305 0 0 Z " fill="#7B7C7D" transform="translate(87,277)"/>
<path d="M0 0 C0.99 0.33 1.98 0.66 3 1 C3.33 2.65 3.66 4.3 4 6 C3.34 6 2.68 6 2 6 C2 7.32 2 8.64 2 10 C1.34 10 0.68 10 0 10 C0 6.7 0 3.4 0 0 Z " fill="#B68A41" transform="translate(296,99)"/>
<path d="M0 0 C0.33 0 0.66 0 1 0 C1.25 6.625 1.25 6.625 -1 10 C-1.33 8.68 -1.66 7.36 -2 6 C-2.99 6.99 -3.98 7.98 -5 9 C-5.66 8.67 -6.32 8.34 -7 8 C-5.85760183 6.66372225 -4.71098945 5.33104612 -3.5625 4 C-2.92441406 3.2575 -2.28632813 2.515 -1.62890625 1.75 C-1.09136719 1.1725 -0.55382812 0.595 0 0 Z " fill="#B18949" transform="translate(309,152)"/>
<path d="M0 0 C1.6852084 4.07679159 0.16939007 6.83075593 -1.4375 10.75 C-1.91058594 11.92046875 -2.38367188 13.0909375 -2.87109375 14.296875 C-3.24363281 15.18890625 -3.61617188 16.0809375 -4 17 C-5.13490188 13.59529435 -4.85941549 12.87970369 -3.6875 9.625 C-3.40648437 8.83480469 -3.12546875 8.04460937 -2.8359375 7.23046875 C-1.92672603 4.8044886 -1.00198428 2.38934712 0 0 Z " fill="#AEA79C" transform="translate(312,264)"/>
<path d="M0 0 C0.66 0 1.32 0 2 0 C2.33 3.96 2.66 7.92 3 12 C2.01 11.67 1.02 11.34 0 11 C0 7.37 0 3.74 0 0 Z " fill="#8C8D8E" transform="translate(78,242)"/>
<path d="M0 0 C2.97 0.99 5.94 1.98 9 3 C8.01 4.485 8.01 4.485 7 6 C6.67 6.66 6.34 7.32 6 8 C4.9970458 6.85675161 3.99770973 5.71032809 3 4.5625 C2.443125 3.92441406 1.88625 3.28632813 1.3125 2.62890625 C0 1 0 1 0 0 Z " fill="#D4A04D" transform="translate(166,304)"/>
<path d="M0 0 C2 3 2 3 2 6 C2.66 6 3.32 6 4 6 C4 7.98 4 9.96 4 12 C2.25728062 9.702779 0.60088848 7.40133271 -1 5 C-0.625 2.3125 -0.625 2.3125 0 0 Z " fill="#B8B8B7" transform="translate(315,88)"/>
<path d="M0 0 C4.29 0.66 8.58 1.32 13 2 C9.64672361 4.23551759 9.09256343 4.17283528 5.3125 3.625 C4.50425781 3.51414062 3.69601563 3.40328125 2.86328125 3.2890625 C2.24839844 3.19367188 1.63351563 3.09828125 1 3 C0.67 2.01 0.34 1.02 0 0 Z " fill="#CD9A52" transform="translate(228,295)"/>
<path d="M0 0 C0.33 0 0.66 0 1 0 C1 3.3 1 6.6 1 10 C0.01 10 -0.98 10 -2 10 C-1.85950482 8.52031676 -1.71245174 7.04125484 -1.5625 5.5625 C-1.48128906 4.73878906 -1.40007812 3.91507812 -1.31640625 3.06640625 C-1 1 -1 1 0 0 Z " fill="#DFDEDC" transform="translate(321,261)"/>
<path d="M0 0 C1.24386556 3.73159669 0.77811718 6.18015204 0 10 C-0.99 10.495 -0.99 10.495 -2 11 C-2 7.7 -2 4.4 -2 1 C-1.34 0.67 -0.68 0.34 0 0 Z " fill="#8F8F90" transform="translate(80,116)"/>
<path d="M0 0 C1.65 1.32 3.3 2.64 5 4 C4.67 5.32 4.34 6.64 4 8 C-0.875 3.25 -0.875 3.25 -2 1 C-1.34 0.67 -0.68 0.34 0 0 Z " fill="#A9A8A9" transform="translate(296,62)"/>
<path d="M0 0 C3.08089673 2.77280706 4.68775452 5.06326356 6 9 C5.01 9 4.02 9 3 9 C0.50022457 5.66696609 0 4.26696398 0 0 Z " fill="#9E9E9E" transform="translate(106,319)"/>
<path d="M0 0 C2 3 2 3 2 6 C1.34 6 0.68 6 0 6 C0 6.66 0 7.32 0 8 C-0.66 8 -1.32 8 -2 8 C-1.125 1.125 -1.125 1.125 0 0 Z " fill="#CCCBC9" transform="translate(301,311)"/>
<path d="M0 0 C-0.33 1.32 -0.66 2.64 -1 4 C-5.455 3.01 -5.455 3.01 -10 2 C-10 1.67 -10 1.34 -10 1 C-2.25 0 -2.25 0 0 0 Z " fill="#B48743" transform="translate(172,296)"/>
<path d="M0 0 C0.66 0.33 1.32 0.66 2 1 C1.34 1.66 0.68 2.32 0 3 C0.66 3.66 1.32 4.32 2 5 C0.125 6.0625 0.125 6.0625 -2 7 C-2.66 6.67 -3.32 6.34 -4 6 C-2.25 1.125 -2.25 1.125 0 0 Z " fill="#B17E25" transform="translate(292,168)"/>
<path d="M0 0 C-0.66 1.98 -1.32 3.96 -2 6 C-2.99 6 -3.98 6 -5 6 C-4.625 3.5625 -4.625 3.5625 -4 1 C-2 0 -2 0 0 0 Z " fill="#D7D6D4" transform="translate(296,325)"/>
<path d="M0 0 C0 0.99 0 1.98 0 3 C-0.99 3.495 -0.99 3.495 -2 4 C-2.99 5.485 -2.99 5.485 -4 7 C-4 6.01 -4 5.02 -4 4 C-4.66 3.67 -5.32 3.34 -6 3 C-3.375 0 -3.375 0 0 0 Z " fill="#C5C4C2" transform="translate(282,344)"/>
<path d="M0 0 C1.4800841 0.11362262 2.95910074 0.24122908 4.4375 0.375 C5.26121094 0.44460938 6.08492187 0.51421875 6.93359375 0.5859375 C7.95646484 0.79089844 7.95646484 0.79089844 9 1 C9.33 1.66 9.66 2.32 10 3 C3.375 4.25 3.375 4.25 0 2 C0 1.34 0 0.68 0 0 Z " fill="#C3AC73" transform="translate(215,265)"/>
<path d="M0 0 C2.46800047 1.15173355 4.04783565 2.04783565 6 4 C5.01 4.99 4.02 5.98 3 7 C0 2.25 0 2.25 0 0 Z " fill="#1E160D" transform="translate(101,168)"/>
<path d="M0 0 C1.34096777 2.68193553 1.01150432 5.08407792 0.96875 8.0234375 C1.00227898 10.14414565 1.32910345 11.98731036 2 14 C1.01 13.67 0.02 13.34 -1 13 C-1.02686553 11.02090602 -1.04633375 9.04171029 -1.0625 7.0625 C-1.07410156 5.96035156 -1.08570312 4.85820313 -1.09765625 3.72265625 C-1 1 -1 1 0 0 Z " fill="#E1D0B1" transform="translate(102,104)"/>
<path d="M0 0 C3.34373475 0.55728913 6.03312999 1.35173889 9 3 C8.34 3.66 7.68 4.32 7 5 C1.125 2.25 1.125 2.25 0 0 Z " fill="#B6B5B4" transform="translate(162,378)"/>
<path d="M0 0 C0.99 0 1.98 0 3 0 C2 2 1 4 0 6 C-0.99 5.67 -1.98 5.34 -3 5 C-1.6875 2.5 -1.6875 2.5 0 0 Z " fill="#DFDEDD" transform="translate(269,355)"/>
<path d="M0 0 C2.76223278 2.76223278 2.57856291 5.20706617 3 9 C2.01 9 1.02 9 0 9 C0 6.03 0 3.06 0 0 Z " fill="#969697" transform="translate(81,257)"/>
<path d="M0 0 C0.33 0.66 0.66 1.32 1 2 C1.66 2 2.32 2 3 2 C2.67 2.99 2.34 3.98 2 5 C1.34 5 0.68 5 0 5 C0 6.65 0 8.3 0 10 C-0.33 10 -0.66 10 -1 10 C-1.125 2.25 -1.125 2.25 0 0 Z " fill="#B9831E" transform="translate(233,201)"/>
<path d="M0 0 C0.66 0.33 1.32 0.66 2 1 C2 3.31 2 5.62 2 8 C1.01 8.33 0.02 8.66 -1 9 C-0.67 6.03 -0.34 3.06 0 0 Z " fill="#ECE1CA" transform="translate(302,108)"/>
<path d="M0 0 C-0.33 1.32 -0.66 2.64 -1 4 C-2.32 4.33 -3.64 4.66 -5 5 C-5 4.34 -5 3.68 -5 3 C-5.66 2.67 -6.32 2.34 -7 2 C-2.25 0 -2.25 0 0 0 Z " fill="#CFCECC" transform="translate(231,381)"/>
<path d="M0 0 C2.12508244 3.18762365 2.5020163 5.26512223 3 9 C0.9375 6.75 0.9375 6.75 -1 4 C-0.75 1.6875 -0.75 1.6875 0 0 Z " fill="#8D8D8D" transform="translate(103,312)"/>
<path d="M0 0 C2.79872437 2.52788007 4.45773019 4.20411134 5 8 C2 7 2 7 0.8125 5.125 C0 3 0 3 0 0 Z " fill="#ADADAE" transform="translate(98,305)"/>
<path d="M0 0 C0.66 0 1.32 0 2 0 C2.33 2.64 2.66 5.28 3 8 C2.01 7.67 1.02 7.34 0 7 C0 4.69 0 2.38 0 0 Z " fill="#8E8F8F" transform="translate(84,268)"/>
<path d="M0 0 C0.66 0 1.32 0 2 0 C1.74438677 2.3431213 1.40729228 4.67843403 1 7 C0.01 7.495 0.01 7.495 -1 8 C-1.04241723 5.66705225 -1.04092937 3.33297433 -1 1 C-0.67 0.67 -0.34 0.34 0 0 Z " fill="#8B8C8E" transform="translate(82,106)"/>
<path d="M0 0 C0.33 0 0.66 0 1 0 C1.1875 2.875 1.1875 2.875 1 6 C0.01 6.66 -0.98 7.32 -2 8 C-1.125 1.125 -1.125 1.125 0 0 Z " fill="#9F7228" transform="translate(106,98)"/>
</svg>
